<svg version="1.1" id="Warstwa_1" xmlns="http://www.w3.org/2000/svg" x="0" y="0" viewBox="0 0 75.4 75.4" xml:space="preserve"><style>.st0{fill:#963a3c}</style><path class="st0" d="M37.7 2.4C18.2 2.4 2.4 18.2 2.4 37.7s15.9 35.4 35.4 35.4 35.4-15.9 35.4-35.4-16-35.3-35.5-35.3zm0 69.7c-18.9 0-34.4-15.4-34.4-34.4 0-18.9 15.4-34.4 34.4-34.4s34.4 15.4 34.4 34.4-15.4 34.4-34.4 34.4z"/><path class="st0" d="M48.7 17.8H33.4L23 26.7v27.2c0 2.1 1.7 3.7 3.7 3.8h21.5c2.3 0 4.2-1.9 4.2-4.2v-32c.1-2.1-1.6-3.7-3.7-3.7zm-15.6 1.5v4.2c0 1.6-1.3 2.9-2.8 2.9h-5.5l8.3-7.1zm18.4 34.2c0 1.7-1.4 3.2-3.2 3.2H26.8c-1.5 0-2.8-1.2-2.8-2.8V27.4h6.3c2.1 0 3.8-1.8 3.8-3.9v-4.7h14.6c1.5 0 2.8 1.2 2.8 2.8v31.9z"/><path class="st0" d="M44.2 31.5l.3 1 .7-.2-5.4 9.6c-.1.1-.2.2-.3.1l-4.1-1.4c-.6-.2-1.2.1-1.4.6l-1.5 2.7.9.5 1.5-2.7c0-.1.2-.1.3-.1l4.1 1.4c.1 0 .3.1.4.1.4 0 .9-.3 1.1-.6l1.9-3.3 3.6-6.4.3.9 1-.3-.8-2.5-2.6.6z"/><path class="st0" d="M27.6 32.7h-1v19.5h18.9v-1H27.6z"/></svg>