<svg version="1.1" id="Warstwa_1" xmlns="http://www.w3.org/2000/svg" x="0" y="0" viewBox="0 0 75.4 75.4" xml:space="preserve"><style>.st0{fill:#963a3c}</style><path class="st0" d="M37.5 2.3C18 2.3 2.2 18.2 2.2 37.7S18 73.1 37.5 73.1s35.4-15.9 35.4-35.4S57 2.3 37.5 2.3zm0 69.8c-18.9 0-34.4-15.4-34.4-34.4 0-18.9 15.4-34.4 34.4-34.4 18.9 0 34.4 15.4 34.4 34.4 0 18.9-15.4 34.4-34.4 34.4z"/><path class="st0" d="M54.8 17.6c-.6-.5-1.4-.8-2.3-.7l-10.5.8c-.8.1-1.6.5-2.1 1.1L27.2 33.7 16 46.7c-1.1 1.3-1 3.2.3 4.4l11.3 9.7c.1.1.3.2.5.3h.1c.5.2 1 .4 1.5.4h.6c.1 0 .3-.1.4-.1.1 0 .1 0 .2-.1s.3-.1.4-.2c.1 0 .1-.1.2-.1.2-.1.3-.3.5-.4l23.1-26.9.8-.9c.5-.6.8-1.4.7-2.3l-.8-10.7c.1-.9-.3-1.6-1-2.2zm.4 14.4L36.1 54.3l-4.7 5.5-.3.3c-.6.5-1.5.5-2.2.2h-.1c-.1-.1-.2-.1-.3-.2l-11.3-9.7c-.9-.8-1-2.1-.2-3l11.2-13L41 19.5c.4-.4.9-.7 1.4-.7l10.5-.8h.2c.5 0 1 .2 1.4.5.4.4.7.9.7 1.4l.8 10.7c-.2.5-.4 1-.8 1.4z"/><path class="st0" d="M48.3 22.3c-1.4 0-2.5 1.1-2.5 2.5s1.1 2.5 2.5 2.5 2.5-1.1 2.5-2.5c.1-1.3-1.1-2.5-2.5-2.5zm0 4.1c-.8 0-1.5-.7-1.5-1.5s.7-1.5 1.5-1.5 1.5.7 1.5 1.5c.1.8-.6 1.5-1.5 1.5zm-5.7 8.4l.2-.3c.7-.8.6-1.9-.2-2.6-.7-.6-2-.5-2.6.3l-.3.3c-2.3-1.2-4.6-.8-6.1.9-2 2.4-1 4.6 1 7.2 1.2 1.6 1.5 2.2 1.2 2.6-.2.2-.7.8-2.1-.4-.9-.7-1.5-1.9-1.6-2.7-.1-.6-.4-1-.7-1.3-.4-.3-.9-.5-1.5-.5-.5 0-1 .3-1.4.7-.4.5-.5 1.2-.4 1.9.1.6.5 1.9 1.7 3.3l-.3.4c-.3.4-.5.9-.4 1.3 0 .5.3 1 .6 1.3.3.3.7.4 1.1.4h.2c.5-.1.9-.3 1.2-.7l.3-.4c2.3 1.3 4.9.9 6.4-.9 1.7-2.1 1.4-4.2-1.1-7.4-1.3-1.6-1.4-2-1.1-2.4.2-.2.4-.3.6-.3.3 0 .7.1 1.4.7.6.5 1.1 1.2 1.4 1.9.2.4.4.8.7 1.1.4.3.9.5 1.4.4.5 0 1-.3 1.3-.7.4-.5.6-1.1.5-1.6 0-.6-.6-1.6-1.4-2.5zm.3 3.8c-.2.2-.4.3-.6.3-.2 0-.5-.1-.7-.2-.2-.2-.3-.5-.5-.7-.3-.9-.9-1.7-1.7-2.3-.7-.6-1.4-.9-2-.9-.6 0-1.1.2-1.4.6-.9 1.1 0 2.3 1.1 3.7 2.5 3.3 2.3 4.8 1.2 6.2-1.3 1.6-3.5 1.8-5.5.5l-.4-.2-.9 1c-.2.2-.4.3-.6.3-.2 0-.4 0-.6-.2-.2-.1-.2-.3-.3-.6 0-.2.1-.5.2-.6l.9-1.1-.1-.2c-.9-1-1.5-2.2-1.8-3.2-.1-.5-.1-.8.2-1.1.2-.2.4-.3.7-.4h.1c.2 0 .5.1.6.2.1.1.3.3.4.7.3 1.2 1.1 2.5 2 3.2 2 1.7 3.1.7 3.5.3.9-1.1 0-2.4-1.2-3.9-2.1-2.7-2.4-4.3-1-6 1.2-1.4 3.2-1.6 5.2-.5l.4.2.8-1c.3-.3.9-.4 1.2-.2.3.3.4.8 0 1.2l-.8 1 .3.3c.8.8 1.4 1.8 1.5 2.6.1.5 0 .7-.2 1z"/></svg>