<svg version="1.1" id="Warstwa_1" xmlns="http://www.w3.org/2000/svg" x="0" y="0" viewBox="0 0 75.4 75.4" xml:space="preserve"><style>.st0{fill:#963a3c}</style><path class="st0" d="M37.7 2.4C18.2 2.4 2.3 18.2 2.3 37.7s15.9 35.4 35.4 35.4S73 57.2 73 37.7 57.2 2.4 37.7 2.4zm0 69.7c-18.9 0-34.4-15.4-34.4-34.4 0-18.9 15.4-34.4 34.4-34.4S72 18.8 72 37.7c0 19-15.4 34.4-34.3 34.4z"/><path class="st0" d="M56.4 49.3c.1-.2.2-.4.3-.5l.6-1.2c.1-.2.2-.5.3-.7.1-.4.3-.7.4-1.1l.3-.9c.1-.4.2-.7.3-1.1.1-.3.1-.6.2-.9.1-.4.1-.8.2-1.2 0-.3.1-.5.1-.8.1-.7.1-1.4.1-2.1 0-7.2-3.6-13.9-9.5-17.9l-.6.8c5.7 3.8 9.1 10.2 9.1 17.1 0 .7 0 1.3-.1 2 0 .3-.1.5-.1.7-.1.4-.1.8-.2 1.2-.1.3-.1.6-.2.9-.1.3-.2.7-.3 1-.1.3-.2.5-.3.8-.1.4-.2.7-.4 1-.1.2-.2.5-.3.7l-.6 1.2c-.1.2-.2.3-.3.5-.3.5-.6 1-.9 1.4 0 .1-.1.1-.1.2-3.7 5.5-10 9-17 9-.6 0-1.2 0-1.8-.1-.2 0-.4 0-.6-.1-.4 0-.8-.1-1.2-.2-.2 0-.5-.1-.7-.1-.5-.1-1-.2-1.5-.4-.3-.1-.7-.2-1-.3-.2-.1-.4-.1-.6-.2-.3-.1-.7-.3-1-.4-.1 0-.2-.1-.3-.1-.7-.3-1.3-.6-1.9-1-.2-.1-.3-.2-.5-.3-.3-.2-.5-.4-.8-.6-.2-.2-.5-.3-.7-.5-.2-.2-.4-.3-.6-.5-.4-.4-.8-.7-1.2-1.1l-.3-.3c-.3-.3-.7-.7-1-1.1l-.3-.3c-.8-1-1.5-2-2.1-3.1 0-.1-.1-.1-.1-.2-1.5-2.9-2.4-6.2-2.4-9.7 0-11 8.7-20 19.6-20.5l-3.3 4 .8.6 4.3-5.3-5.5-4.5-.6.8 4.1 3.4c-11.1.6-20.2 10-20.2 21.5 0 3.3.8 6.5 2.1 9.3.1.3.3.5.4.8 0 .1.1.2.1.2.6 1.1 1.4 2.2 2.2 3.2l.3.3c.3.4.7.7 1 1.1l.4.4c.4.4.8.8 1.3 1.2.2.2.4.4.7.5.2.2.5.4.7.5l.9.6c.2.1.3.2.5.3.7.4 1.3.8 2 1.1.1 0 .2.1.3.1.4.2.7.3 1.1.4.2.1.4.1.6.2.3.1.7.2 1.1.3.5.1 1 .3 1.5.4.2.1.5.1.7.1.4.1.8.1 1.2.2.2 0 .4.1.7.1.6.1 1.3.1 1.9.1 6.6 0 12.5-3 16.4-7.6.5-.6 1-1.2 1.4-1.9 0-.1.1-.1.1-.2.3-.2.6-.7.8-1.2z"/></svg>