<svg version="1.1" id="Warstwa_1" xmlns="http://www.w3.org/2000/svg" x="0" y="0" viewBox="0 0 75.4 75.4" xml:space="preserve"><style>.st0{fill:#963a3c}</style><path class="st0" d="M37.5 2.3C18 2.3 2.2 18.2 2.2 37.7S18 73.1 37.5 73.1s35.4-15.9 35.4-35.4S57 2.3 37.5 2.3zm0 69.8c-18.9 0-34.4-15.4-34.4-34.4S18.6 3.3 37.5 3.3s34.4 15.4 34.4 34.4-15.4 34.4-34.4 34.4z"/><path class="st0" d="M47.6 49.6c1.7 0 3.1-1.4 3.1-3V24.3c0-1.7-1.4-3-3-3H21.3c-1.7 0-3 1.4-3 3v22.2c0 1.7 1.4 3 3 3h26.3zM21.3 22.3h26.3c1.1 0 2 .9 2 2v2.2H19.2v-2.2c0-1.1 1-2 2.1-2zm0 26.3c-1.1 0-2-.9-2-2V27.5h30.4v19.1c0 1.1-.9 2-2 2H21.3z"/><path class="st0" d="M22.1 25.7c.6 0 1.1-.5 1.2-1.1 0 .6.5 1.1 1.2 1.1.6 0 1.1-.5 1.2-1.1 0 .6.5 1.1 1.2 1.1s1.2-.5 1.2-1.2-.5-1.2-1.2-1.2c-.6 0-1.1.5-1.2 1.1 0-.6-.5-1.1-1.2-1.1-.6 0-1.1.5-1.2 1.1 0-.6-.5-1.1-1.2-1.1s-1.2.5-1.2 1.2.5 1.2 1.2 1.2zm4.6-1.4c.1 0 .2.1.2.2 0 .2-.4.2-.4 0 .1-.1.1-.2.2-.2zm-2.3 0c.1 0 .2.1.2.2 0 .2-.4.2-.4 0 0-.1.1-.2.2-.2zm-2.3 0c.1 0 .2.1.2.2 0 .2-.4.2-.4 0 0-.1 0-.2.2-.2zm32.1 2.4h-2v1h2c1.1 0 2 .9 2 2v2.2h-4v1h4v19c0 1.1-.9 2-2 2H27.9c-1.1 0-2-.9-2-2v-.7h-1v.8c0 1.7 1.4 3 3 3h26.3c1.7 0 3-1.4 3-3V29.7c.1-1.6-1.3-3-3-3zm-31.5 3.4h9.7v1h-9.7zm0 2.4h7.4v1h-7.4z"/></svg>