<svg version="1.1" id="Warstwa_1" xmlns="http://www.w3.org/2000/svg" x="0" y="0" viewBox="0 0 75.4 75.4" xml:space="preserve"><style>.st0{fill:#963a3c}</style><path class="st0" d="M37.5 2.3C18 2.3 2.2 18.2 2.2 37.7S18 73.1 37.5 73.1s35.4-15.9 35.4-35.4S57 2.3 37.5 2.3zm0 69.8c-18.9 0-34.4-15.4-34.4-34.4 0-18.9 15.4-34.4 34.4-34.4 18.9 0 34.4 15.4 34.4 34.4 0 18.9-15.4 34.4-34.4 34.4z"/><path class="st0" d="M37.5 48c-1.2 0-2.1 1-2.1 2.1s1 2.1 2.1 2.1 2.1-1 2.1-2.1-.9-2.1-2.1-2.1zm0 3.3c-.6 0-1.1-.5-1.1-1.1s.5-1.1 1.1-1.1 1.1.5 1.1 1.1-.5 1.1-1.1 1.1z"/><path class="st0" d="M55.2 19.7H19.9c-3.1 0-5.7 2.6-5.7 5.7v23.2c0 3.1 2.6 5.7 5.7 5.7H37v2.3h-3.5v1h7.9v-1H38v-2.3h17.1c3.1 0 5.7-2.6 5.7-5.7V25.4c.1-3.1-2.5-5.7-5.6-5.7zm4.7 25v4c0 2.6-2.1 4.7-4.7 4.7H19.9c-2.6 0-4.7-2.1-4.7-4.7V25.5c0-2.6 2.1-4.7 4.7-4.7h35.3c2.6 0 4.7 2.1 4.7 4.7v19.2z"/><path class="st0" d="M54.8 22.3H20.2c-1.7 0-3.1 1.4-3.1 3.1v18.5c0 1.7 1.4 3.1 3.1 3.1h34.6c1.7 0 3.1-1.4 3.1-3.1V25.4c0-1.7-1.4-3.1-3.1-3.1zm2.1 21.6c0 1.2-.9 2.1-2.1 2.1H20.2c-1.2 0-2.1-.9-2.1-2.1V25.4c0-1.2.9-2.1 2.1-2.1h34.6c1.2 0 2.1.9 2.1 2.1v18.5z"/><path class="st0" d="M37.5 27.9c-4 0-7.2 3.2-7.2 7.2s3.2 7.2 7.2 7.2 7.2-3.2 7.2-7.2-3.2-7.2-7.2-7.2zm0 13.3c-3.4 0-6.2-2.8-6.2-6.2s2.8-6.2 6.2-6.2 6.2 2.8 6.2 6.2-2.8 6.2-6.2 6.2z"/><path class="st0" d="M35.4 38.6l5.5-3.4-5.5-3.4v6.8zm1-5l2.6 1.6-2.6 1.6v-3.2z"/></svg>