<svg version="1.1" id="Warstwa_1" xmlns="http://www.w3.org/2000/svg" x="0" y="0" viewBox="0 0 75.4 75.4" xml:space="preserve"><style>.st0{fill:#963a3c}</style><path class="st0" d="M37.7 73.1c-19.5 0-35.4-15.9-35.4-35.4S18.2 2.4 37.7 2.4s35.4 15.9 35.4 35.4-15.9 35.3-35.4 35.3zm0-69.7C18.8 3.4 3.4 18.8 3.4 37.7s15.4 34.4 34.4 34.4 34.4-15.4 34.4-34.4C72.1 18.8 56.7 3.4 37.7 3.4z"/><path class="st0" d="M19.6 49c-.7-.5-1.1-1.2-1.3-2s.1-1.6.5-2.3l1.8-2.4.8.6-1.8 2.4c-.3.5-.5 1-.4 1.6.1.6.4 1 .9 1.4l-.5.7z"/><path transform="rotate(-59.55 10.388 38.762)" class="st0" d="M9.9 30.2h1v17.1h-1z"/><path class="st0" d="M28 36.2c-.6 0-1.2-.1-1.7-.4-1.3-.6-2-1.7-2.3-2.4l-.1-.3 5.5-6.1c.5-.6 1.2-1 2-1.3l8.1-2.5c.9-.3 1.8-.2 2.7.1l10.7 4 12.2-4.1.3.9-12.6 4.2-11-4.1c-.7-.2-1.4-.3-2.1-.1l-8.1 2.5c-.6.2-1.1.5-1.6 1l-5 5.6c.3.5.8 1.2 1.6 1.6 1.4.6 3.2.2 4.4-1.1l.7.7c-1 1.3-2.3 1.8-3.7 1.8z"/><path class="st0" d="M29.2 28.5l-5-.6-16.3-7.7.4-.9L24.6 27l4.7.5zm23.6 0l-11-4.1c-.7-.2-1.4-.3-2.1-.1l-1.4.4-.3-1 1.4-.4c.9-.3 1.8-.2 2.7.1l10.7 4L69 22.1l.3.9-16.5 5.5zm3.5 23c-.9 0-1.8-.3-2.5-.9l-7-5.2.6-.8 7.1 5.2c.6.5 1.4.8 2.1.7.7-.1 1.4-.4 1.8-.9.5-.5.6-1.3.5-2-.1-.8-.6-1.5-1.2-1.9L40.9 32.4l.6-.8 16.7 13.2c.9.6 1.5 1.5 1.7 2.6.2 1-.1 2.1-.7 2.8-.6.7-1.5 1.2-2.5 1.3h-.4z"/><path class="st0" d="M52.7 53l-.8-.7c.6-.7.6-1.7.6-1.7 0-.4-.2-1-.7-1.5l.8-.7c.7.8.9 1.6.9 2.2 0 .1.1 1.4-.8 2.4zm6.3-7l-.8-.5 2.2-3.6 6.6-1.5.2 1-6.2 1.4z"/><path class="st0" d="M56.4 51.5c-.9 0-1.8-.3-2.5-.9l-7-5.2.6-.8 7.1 5.2c.9.8 2.3.9 3.3.3.2-.1.5-.3.6-.5.5-.5.6-1.3.5-2-.1-.8-.6-1.5-1.2-1.9L40.9 32.4l.6-.8 16.7 13.2c.9.6 1.5 1.5 1.7 2.6.2 1-.1 2.1-.7 2.8-.2.3-.5.6-.9.8-.6.3-1.3.5-1.9.5zm-33.1 1.4l-.3-.3c-1.2-.8-1.5-2.5-.7-3.7l2.3-3.6c.6-.9.4-2.1-.5-2.7l-.1-.1c-.5-.3-1.1-.4-1.7-.2-.4.1-.7.3-.9.7l-.8-.6c.4-.5.9-.9 1.5-1.1.8-.2 1.7-.1 2.5.3.1 0 .1.1.2.1 1.3.9 1.6 2.7.7 4l-2.3 3.6c-.5.8-.3 1.8.5 2.4l.3.2-.7 1z"/><path class="st0" d="M27.5 56l-.8-.6c-1.2-.9-1.5-2.5-.7-3.7l2-3.4c.5-.8.3-1.8-.4-2.4l-.1-.1c-.9-.5-1.8-.2-1.9-.2l-.4-.9c.2-.1 1.5-.5 2.8.2.1 0 .1.1.2.1 1.1.8 1.5 2.4.7 3.7l-2 3.4c-.5.8-.3 1.8.5 2.4l.8.6-.7.9z"/><path class="st0" d="M31.9 53.3l-.9-.5.7-1.2c.5-.9.4-1.9-.3-2.6l-.1-.1c-.7-.5-1.6-.6-2.4-.2l-.5-.9c1.1-.6 2.5-.5 3.4.3.1 0 .1.1.2.1 1.1 1 1.3 2.6.5 3.8l-.6 1.3z"/><path class="st0" d="M31.4 57.8c-.1-.1-1.4-1.4-1.2-3.1.1-.5.4-2 1.8-2.6.9-.4 2.2-.3 3.1.6.9.9 1 2.4.3 3.5l-.9-.5c.5-.8.4-1.7-.2-2.3-.6-.6-1.4-.6-2-.3-1 .4-1.2 1.5-1.2 1.8-.2 1.3.8 2.2.9 2.3l-.6.6zm18.4-3.5h-.3c-.8 0-1.5-.3-2.2-.8L43 50.1l.6-.8 4.3 3.3c.5.4 1.1.6 1.6.6 1 .1 1.8-.3 2.3-.9l.8.7c-.6.8-1.6 1.3-2.8 1.3z"/><path class="st0" d="M44.7 58.3c-.6 0-1.1-.1-1.6-.4l-5.2-3.7.6-.8 5.1 3.7c1.1.6 2.6.2 3.2-.9.5-.9.7-2.4 0-3.1l.7-.7c1 1.1.8 3 .1 4.3-.5 1-1.7 1.6-2.9 1.6z"/><path class="st0" d="M40.5 58.7c-.4 0-.8-.1-1.1-.2l-3-1.3.4-.9 3 1.3c.7.3 1.5.2 2-.4l.3-.3.3.3.6.1c0 .2-.1.3-.5.7-.6.4-1.3.7-2 .7zm-13-2.7l-.8-.6c-1.2-.9-1.5-2.5-.7-3.7l2-3.4c.3-.6.3-1.3 0-1.9-.1-.2-.3-.3-.4-.5l-.1-.1c-.3-.2-.6-.3-.9-.3l.1-1c.5 0 .9.2 1.3.4.1 0 .1.1.2.1.3.2.5.5.7.8.5.9.5 2 0 2.9l-2 3.4c-.5.8-.3 1.8.5 2.4l.8.6-.7.9z"/><path class="st0" d="M31.9 53.3l-.9-.5.7-1.2c.5-.9.4-1.9-.3-2.6l-.1-.1c-.7-.5-1.6-.6-2.4-.2l-.5-.9c1.1-.6 2.5-.5 3.4.3.1 0 .1.1.2.1 1.1 1 1.3 2.6.5 3.8l-.6 1.3z"/><path class="st0" d="M31.4 57.8c-.1-.1-1.4-1.4-1.2-3.1.1-.4.4-2 1.8-2.6.9-.4 2.2-.3 3.1.6.9.9 1 2.4.3 3.5l-.9-.5c.5-.8.4-1.7-.2-2.3-.6-.6-1.4-.6-2-.3-1 .4-1.2 1.5-1.2 1.8-.1 1.2.8 2.1.9 2.2l-.6.7zm13.3.5c-.6 0-1.1-.1-1.6-.4l-5.2-3.7.6-.8 5.1 3.7c1.1.6 2.6.2 3.2-.9.5-.9.7-2.4 0-3.1l.7-.7c1 1.1.8 3 .1 4.3-.5 1-1.7 1.6-2.9 1.6z"/><path class="st0" d="M40.5 58.7c-.4 0-.8-.1-1.1-.2l-3-1.3.4-.9 3 1.3c.7.3 1.5.2 2-.4l.3-.3.3.3.6.1c0 .2-.1.3-.5.7-.6.4-1.3.7-2 .7zm-5-2.5l-.9-.5c.5-.8.4-1.7-.2-2.3-.2-.2-.5-.4-.8-.4l.3-1c.5.1.9.4 1.2.7.9.9 1.1 2.4.4 3.5zM52.7 53l-.8-.7c.6-.7.6-1.7.6-1.7 0-.4-.2-1-.7-1.5l.8-.7c.7.8.9 1.6.9 2.2 0 .1.1 1.4-.8 2.4zm6.3-7l-.8-.5 2.2-3.6 12-2.7.2.9L61 42.8z"/></svg>