<svg version="1.1" id="Warstwa_1" xmlns="http://www.w3.org/2000/svg" x="0" y="0" viewBox="0 0 75.4 75.4" xml:space="preserve"><style>.st0{fill:#963a3c}</style><path class="st0" d="M37.7 2.4C18.2 2.4 2.3 18.2 2.3 37.7s15.9 35.4 35.4 35.4S73 57.2 73 37.7 57.2 2.4 37.7 2.4zm0 69.7c-18.9 0-34.4-15.4-34.4-34.4 0-18.9 15.4-34.4 34.4-34.4S72 18.8 72 37.7c0 19-15.4 34.4-34.3 34.4z"/><path class="st0" d="M35 58.3l7.5-6 3.4 6.8 5.3-2.8-3.3-6.6 5.2-.5 4.1-.4L35 27v31.3zm1-28.9l18.9 18.7-2 .2-6.6.7 3.5 7-1.2.6-2.3 1.2-3.5-7-6.8 5.4V29.4z"/><path class="st0" d="M22.1 49.1c-1.2 0-2.2-1-2.2-2.2V24.8H25c1.8 0 3.3-1.5 3.3-3.4v-3.9h12.1c1.2 0 2.2 1 2.2 2.2v11h1v-11c0-1.8-1.5-3.2-3.2-3.2H27.6L18.8 24v22.9c0 1.8 1.4 3.2 3.2 3.2h9.5v-1h-9.4zM25 23.8h-4.4l6.7-5.7v3.3c0 1.3-1 2.4-2.3 2.4z"/></svg>