<svg xmlns="http://www.w3.org/2000/svg" viewBox="0 0 75.4 75.4"><path d="M56.1 45.2l-4.8-4.8c-1.3-1.3-3.5-1.3-4.8 0l-2.2 2.2c-1 1-2.6 1-3.7 0l-9.5-9.5c-1-1-1-2.6 0-3.7l2.2-2.2c1.3-1.3 1.3-3.5 0-4.8l-4.8-4.8c-1.3-1.3-3.5-1.3-4.8 0-1 1-1.3 1.3-1.8 1.7-4.8 4.8-4.8 12.6 0 17.4L37 51.8c4.8 4.8 12.6 4.8 17.4 0l1.8-1.8c1.2-1.3 1.2-3.5-.1-4.8zM49.7 42l4.8 4.8c.4.4.4 1.2 0 1.6l-.8.8-6.4-6.4.8-.8c.4-.5 1.1-.5 1.6 0zM26.9 19.2l4.8 4.8c.4.4.4 1.2 0 1.6l-.8.8-6.4-6.4.8-.8c.4-.4 1.2-.4 1.6 0zm11.7 31L23.5 35.1c-3.7-3.7-3.9-9.5-.6-13.5l6.4 6.4c-1.7 1.9-1.6 4.8.2 6.6l9.5 9.5c1.8 1.8 4.7 1.9 6.6.2l6.4 6.4c-3.9 3.4-9.7 3.2-13.4-.5z" fill="#8c97a2"/></svg>