<svg version="1.1" id="Warstwa_1" xmlns="http://www.w3.org/2000/svg" x="0" y="0" viewBox="0 0 75.4 75.4" xml:space="preserve"><style>.st0{fill:#963a3c}</style><path class="st0" d="M37.5 2.4C18 2.4 2.2 18.2 2.2 37.7S18 73.1 37.5 73.1s35.4-15.9 35.4-35.4S57 2.4 37.5 2.4zm0 69.7c-18.9 0-34.4-15.4-34.4-34.4 0-18.9 15.4-34.4 34.4-34.4s34.4 15.4 34.4 34.4-15.4 34.4-34.4 34.4z"/><path class="st0" d="M50.6 55.1c0 1.7-1.4 3.1-3.1 3.1H23.7c-1.7 0-3.1-1.4-3.1-3.1V20.2c0-1.7 1.4-3.1 3.1-3.1h23.8c1.7 0 3.1 1.4 3.1 3.1v15.2h1V20.2c0-2.2-1.8-4.1-4.1-4.1H23.8c-2.2 0-4.1 1.8-4.1 4.1v34.9c0 2.2 1.8 4.1 4.1 4.1h23.8c2.2 0 4.1-1.8 4.1-4.1v-8.2h-1v8.2z"/><path class="st0" d="M24.2 22.7h22.9v1H24.2zm0 6.4h22.9v1H24.2zm0 6.5h22.9v1H24.2zm41.5-3.3l-2.8-3.4-20.8 17.4-2.5 5 5.2-1.5 18.7-15.6.4 2.7-7.8 6.5.6.8 8.3-6.9-.5-3.8 1.2-1.2zM44.3 48.9l-2.9.8 1.3-2.7 20-16.7 1.5 1.8-19.9 16.8zM32.4 50l-2-5-1.6 3.7-2.5-5.5-.3 7h-1.9v1h2.8l.2-3.8 1.7 3.8 1.6-3.6 1.6 4 2.5-1.9 1.6 1.7h1.8v-1h-1.4l-1.9-2.1z"/></svg>