<svg version="1.1" id="Warstwa_1" xmlns="http://www.w3.org/2000/svg" x="0" y="0" viewBox="0 0 75.4 75.4" xml:space="preserve"><style>.st0{fill:#963a3c}</style><path class="st0" d="M37.7 2.4C18.2 2.4 2.4 18.2 2.4 37.7s15.9 35.4 35.4 35.4 35.4-15.9 35.4-35.4-16-35.3-35.5-35.3zm0 69.7c-18.9 0-34.4-15.4-34.4-34.4S18.8 3.4 37.7 3.4s34.4 15.4 34.4 34.4-15.4 34.3-34.4 34.3z"/><path class="st0" d="M55.9 42c-.1-3.1-1-6-2.6-8.7l-.9.5c1.6 2.7 2.5 5.8 2.5 9 0 5.4-2.5 10.3-6.5 13.4-1.5 1.2-3.1 2.1-4.9 2.7-.1 0-.2.1-.3.1-.3.1-.7.2-1 .3-.2 0-.4.1-.5.1-.3.1-.6.1-.9.2-.2 0-.5.1-.7.1-.3 0-.6.1-.8.1-.4 0-.8.1-1.2.1h-.3c-3.9 0-7.7-1.3-10.7-3.8-4.1-3.3-6.4-8.2-6.4-13.4 0-4.6 1.9-8.8 4.8-11.9l.4-.4c.3-.3.6-.5.9-.8.1-.1.3-.2.5-.4.3-.2.6-.4.9-.7.2-.1.4-.3.6-.4.3-.2.5-.3.8-.5.3-.1.5-.3.8-.4.2-.1.5-.2.7-.4.3-.1.6-.3 1-.4.2-.1.4-.2.6-.2l1.2-.3c.2 0 .3-.1.5-.1.4-.1.9-.2 1.3-.2.1 0 .3-.1.4-.1.6-.1 1.1-.1 1.7-.1h.1c3.2 0 6.3.9 9 2.6l.5-.8c-2.9-1.8-6.2-2.7-9.6-2.7h-.1c-.6 0-1.2 0-1.8.1-.2 0-.3.1-.5.1-.5.1-.9.1-1.4.2-.2 0-.4.1-.6.1l-1.2.3c-.2.1-.4.2-.7.2-.3.1-.7.3-1 .4-.3.1-.5.3-.8.4-.3.1-.5.3-.8.4-.3.2-.6.3-.9.5-.2.1-.4.3-.6.4-.3.2-.6.4-.9.7-.2.1-.3.3-.5.4-.3.3-.6.5-.9.8l-.4.4c-.2.2-.4.4-.5.6-2.8 3.2-4.6 7.4-4.6 12 0 5.6 2.5 10.7 6.8 14.2.3.2.5.4.8.6v.1c3.1 2.2 6.7 3.4 10.6 3.4h.4c.4 0 .8 0 1.1-.1.4 0 .8-.1 1.2-.2h.3c8.6-1.5 15.1-8.9 15.1-17.9V42zM33.6 20.7h2v1.8h1v-1.8h2v1.8h1v-1.8H42c1.3 0 2.3-1 2.3-2.3v-2c0-1.3-1-2.3-2.3-2.3h-8.3c-1.3 0-2.3 1-2.3 2.3v2c-.2 1.3.9 2.3 2.2 2.3zm-1.4-4.3c0-.7.6-1.3 1.3-1.3h8.3c.7 0 1.3.6 1.3 1.3v2c0 .7-.6 1.3-1.3 1.3h-8.3c-.7 0-1.3-.6-1.3-1.3v-2zM21.7 27.3l1.4 1.4.7-.7-1.4-1.4 1.1-1.1-.8-.7-2.8 2.8.7.7z"/><path class="st0" d="M37.2 31v9.2c-1.2.2-2.1 1.3-2.1 2.5 0 1.4 1.2 2.6 2.6 2.6s2.6-1.2 2.6-2.6c0-1.2-.9-2.3-2.1-2.5V31h-1zm2.1 11.8c0 .9-.7 1.6-1.6 1.6s-1.6-.7-1.6-1.6c0-.9.7-1.6 1.6-1.6s1.6.7 1.6 1.6z"/></svg>