<svg version="1.1" id="Warstwa_1" xmlns="http://www.w3.org/2000/svg" x="0" y="0" viewBox="0 0 75.4 75.4" xml:space="preserve"><style>.st0{fill:#963a3c}</style><path class="st0" d="M37.6 2.4C18.1 2.4 2.2 18.2 2.2 37.7s15.9 35.4 35.4 35.4S73 57.2 73 37.7 57.1 2.4 37.6 2.4zm0 69.7c-18.9 0-34.4-15.4-34.4-34.4S18.6 3.4 37.6 3.4 72 18.8 72 37.8 56.5 72.1 37.6 72.1z"/><path class="st0" d="M54.5 29.2v-.6l-.6.2s-4.9 1.5-10.1 1.1l-1.9-6.4-.2-.1c-.5-.2-1-.4-1.4-.6-.1 0-.2-.1-.3-.1-.4-.1-.8-.3-1.2-.4-.1 0-.2-.1-.2-.1-.4-.1-.8-.3-1.3-.4h-.1C33 20.5 29.6 20.6 27 21l-.2-.8c-.5-1.9-2.5-3-4.4-2.4-.9.3-1.7.9-2.1 1.7-.5.8-.6 1.8-.3 2.7l1-.3c-.2-.6-.1-1.3.2-1.9.3-.6.9-1 1.5-1.2.6-.2 1.3-.1 1.9.2.6.3 1 .9 1.2 1.5l.2.8c-3.4.9-5.1 2.5-5.3 2.7l.3.4-.5.1 10.1 35.4c.4 1.6 1.9 2.6 3.4 2.6.3 0 .6 0 1-.1.9-.3 1.7-.9 2.1-1.7.5-.8.6-1.8.3-2.7l-5.5-20c1.1-.1 2.2-.1 3.3-.1h.8c1.5 0 3 .1 4.3.2l1.7 6.6.3.1c.2.1 2.9.7 6.4.7 2 0 4.3-.2 6.5-.9.2-.1.4-.1.5-.2.3-.1.5-.2.8-.3.3-.1.6-.2.9-.4.2-.1.3-.1.5-.2.4-.2.9-.4 1.3-.7l.7-.4-8-5.1c.6-1.1 2.8-5 2.6-8.1zm-18.4-6.7c.2 0 .3.1.5.1.2.1.4.1.6.2.2.1.5.1.7.2.2.1.3.1.5.2l.9.3c.1 0 .3.1.4.1.4.2.9.3 1.3.5l2.1 7.3 1.8 6.2c-3-.5-13.7-2-19.2.9l-4-14.1c1-.8 5.8-4.1 14.4-1.9zm.5 35.6c.2.6.1 1.3-.2 1.9-.3.6-.9 1-1.5 1.2-1.3.4-2.8-.4-3.1-1.7L26 39.6c1.3-.7 3-1.2 4.9-1.4l5.7 19.9zm4.7-19.9c2.5.3 4.2.6 4.2.6l.8.2-1.2-4.1-1.2-4c4.2.3 8-.6 9.5-1-.1 3.3-2.8 7.4-2.8 7.5l-.3.4 5.7 3.6 1.7 1.1h-.1c-.4.2-.8.4-1.3.6-.2.1-.4.2-.6.2-.2.1-.5.2-.7.2-.2.1-.5.2-.7.2-.1 0-.2 0-.3.1-.7.2-1.4.3-2.1.4-4.3.6-8.1-.1-9.2-.4l-1.4-5.6z"/></svg>