<svg version="1.1" id="Warstwa_1" xmlns="http://www.w3.org/2000/svg" x="0" y="0" viewBox="0 0 75.4 75.4" xml:space="preserve"><style>.st0{fill:#963a3c}</style><path class="st0" d="M37.6 2.4C18.1 2.4 2.2 18.2 2.2 37.7s15.9 35.4 35.4 35.4S73 57.2 73 37.7 57.1 2.4 37.6 2.4zm0 69.7c-18.9 0-34.4-15.4-34.4-34.4S18.6 3.4 37.6 3.4 72 18.8 72 37.8 56.5 72.1 37.6 72.1z"/><path class="st0" d="M32.4 19.3h10.3v1H32.4zm5.2 30.6c-1.4 0-2.6 1.2-2.6 2.6 0 1.4 1.2 2.6 2.6 2.6s2.6-1.2 2.6-2.6c0-1.5-1.2-2.6-2.6-2.6zm0 4.2c-.9 0-1.6-.7-1.6-1.6s.7-1.6 1.6-1.6 1.6.7 1.6 1.6-.7 1.6-1.6 1.6z"/><path class="st0" d="M51.8 15.7H23.4c-2 0-3.6 1.6-3.6 3.6v36.9c0 2 1.6 3.6 3.6 3.6h28.4c2 0 3.6-1.6 3.6-3.6v-37c0-1.9-1.7-3.5-3.6-3.5zm2.6 8.9v31.5c0 1.4-1.2 2.6-2.6 2.6H23.4c-1.4 0-2.6-1.2-2.6-2.6V19.2c0-1.4 1.2-2.6 2.6-2.6h28.4c1.4 0 2.6 1.2 2.6 2.6v5.4z"/><path class="st0" d="M36.9 33.1l-4.4-4.4c-.1-.1-.4-.2-.5-.1-.1 0-.1.1-.1.1L27.2 33l.7.7 3.8-3.5v13h1v-13l3.5 3.5.7-.6zm6.8 9v-13h-1v13L39 38.7l-.7.7 4.6 4.3.1.1h.2c.1 0 .3-.1.4-.1l4.4-4.4-.7-.7-3.6 3.5z"/></svg>