<svg version="1.1" id="Warstwa_1" xmlns="http://www.w3.org/2000/svg" x="0" y="0" viewBox="0 0 75.4 75.4" xml:space="preserve"><style>.st0{fill:#963a3c}</style><path class="st0" d="M37.7 2.4C18.2 2.4 2.3 18.2 2.3 37.7s15.9 35.4 35.4 35.4S73 57.2 73 37.7 57.2 2.4 37.7 2.4zm0 69.7c-18.9 0-34.4-15.4-34.4-34.4 0-18.9 15.4-34.4 34.4-34.4C56.6 3.4 72 18.8 72 37.7c0 19-15.4 34.4-34.3 34.4z"/><path class="st0" d="M57.3 52.6c.3-.4.5-.8.7-1.2l.3-.6c.3-.5.5-.9.8-1.4.1-.1.1-.2.1-.3.3-.6.5-1.1.7-1.7.2-.6.4-1.3.6-1.9v-.1c.2-.6.3-1.3.4-1.9v-.2c.1-.6.2-1.3.3-1.9v-.2c.1-.7.1-1.3.1-2 0-8-4-15.5-10.6-19.9l-.4.7c6.4 4.3 10.2 11.4 10.2 19.1 0 .6 0 1.3-.1 1.9v.2c-.1.6-.1 1.2-.2 1.8v.2c-.1.6-.2 1.2-.4 1.8v.1l-.6 1.8c-.2.6-.4 1.1-.7 1.6 0 .1-.1.2-.1.3-.2.5-.5.9-.7 1.4l-.3.6c-.2.4-.5.7-.7 1.1-.2.3-.4.5-.5.8-.1.1-.2.3-.3.4-4.2 5.4-10.8 8.9-18.2 8.9-.5 0-1 0-1.5-.1h-.3c-5.3-.4-10.3-2.7-14.1-6.4l-.1-.1-1-1-.3-.3c-.2-.2-.4-.5-.6-.7-.1-.2-.3-.3-.4-.5-.2-.2-.3-.4-.5-.7l-.6-.9c-.1-.2-.2-.4-.3-.5-.1-.2-.3-.4-.4-.7-.1-.2-.2-.4-.4-.7-1.6-3.1-2.5-6.7-2.5-10.4 0-12.4 9.8-22.5 22.1-23L33 20.6l.8.6 4.8-5.8-6.1-5-.6.8 4.7 3.9c-12.7.6-22.8 11.2-22.8 24 0 3.7.8 7.2 2.4 10.4.1.2.2.3.3.5.1.2.2.5.4.7.1.2.3.5.4.7.1.2.2.4.4.6l.6.9c.2.2.3.5.5.7.1.2.3.3.4.5.2.3.4.5.7.8l.3.3c.3.4.7.7 1.1 1.1l.1.1c3.9 3.8 9.1 6.2 14.8 6.7h.3c.5 0 1 .1 1.6.1 7.3 0 13.9-3.3 18.3-8.5.2-.2.4-.5.5-.7.2-.2.3-.4.5-.6-.4-.3-.3-.5-.1-.8z"/><path class="st0" d="M48.4 48.8l3.2 3.2.2-.8c.5-1.8 0-3.7-1.3-5-1.5-1.5-3.7-1.9-5.7-1.1L33.1 33.3c.8-1.9.4-4.2-1.1-5.7-1.3-1.3-3.2-1.8-5-1.3l-.8.2 3.2 3.2v1.4l-1.2 1.2h-1.4l-3.2-3.2-.2.8c-.5 1.8 0 3.7 1.3 5 1.5 1.5 3.7 1.9 5.7 1.1l11.7 11.7c-.8 1.9-.4 4.2 1.1 5.7 1 1 2.3 1.5 3.6 1.5.5 0 .9-.1 1.4-.2l.8-.2-3.2-3.2v-1.4l1.2-1.2 1.4.1zm-3.6.7l.1 2.2 2.1 2.1c-1.2.1-2.3-.4-3.1-1.2-1.3-1.3-1.6-3.2-.7-4.8l.2-.3-12.8-12.7-.4.2c-1.6.8-3.6.5-4.8-.7-.8-.8-1.3-2-1.2-3.1l2.1 2.1 2.2.1 1.8-1.8-.1-2.2-2.1-2.1c1.2-.1 2.3.4 3.1 1.2 1.3 1.3 1.6 3.2.7 4.8l-.2.3 12.7 12.7.3-.2c1.6-.8 3.6-.5 4.8.7.8.8 1.3 2 1.2 3.1l-2.1-2.1-2.2-.1-1.6 1.8z"/><path class="st0" d="M44.9 33.6l2-2 5.7-2.9-3.3-3.3-3.1 5.4-2.1 2.1-4.4 4.4.7.7 4.5-4.4zm4.7-6.6l1.4 1.4-3 1.5 1.6-2.9zM23.2 52.4c0 .5.2 1.1.6 1.5.4.4.9.6 1.5.6s1.1-.2 1.5-.6l9.4-9.5-2.9-2.9-9.5 9.5c-.4.4-.6.9-.6 1.4zm10-9.5l1.5 1.5-8.7 8.8c-.4.4-1.1.4-1.5 0-.2-.2-.3-.5-.3-.7 0-.3.1-.5.3-.7l3.2-3.3 5.5-5.6z"/></svg>