<svg version="1.1" id="Warstwa_1" xmlns="http://www.w3.org/2000/svg" x="0" y="0" viewBox="0 0 75.4 75.4" xml:space="preserve"><style>.st0{fill:#963a3c}</style><path class="st0" d="M37.6 2.4C18.1 2.4 2.2 18.2 2.2 37.7s15.9 35.4 35.4 35.4S73 57.2 73 37.7 57.1 2.4 37.6 2.4zm0 69.7c-18.9 0-34.4-15.4-34.4-34.4S18.6 3.4 37.6 3.4C56.5 3.4 72 18.8 72 37.8S56.5 72.1 37.6 72.1z"/><path class="st0" d="M15.9 37.3l5.3 11.4 2.8-1.4c.3.7.8 1.7 1.7 2.5 1.1.9 2.3 1.3 3.1 1.4l2.5 9.7.3.1c.3.1.7.1 1.3.1.8 0 1.7-.1 2.7-.7 1.6-.8 2.3-2.1 2.7-2.8l.1-.2-11.3-25.8-11.2 5.7zm19.3 22.2c-1.2.6-2.4.6-3.1.5l-2.5-9.8h-.4c-.6 0-1.8-.2-2.9-1.1-1-.9-1.4-2-1.6-2.5l-.1-.6-2.9 1.5-4.4-9.6 9.4-4.8 10.7 24.4c-.4.5-1 1.4-2.2 2zm16-30.4c-1.8-4.1-4-8-6.6-11.7l-.5-.7-.4.8c-1.5 3-3.4 5.7-5.9 8-2.3 2.2-5 4-8 5.2l-.4.3 5.8 12.7.4-.1c3.1-.8 6.2-1.3 9.4-1.3 3.4 0 6.7.4 10 1.3l.8.2-.2-.8c-1-4.8-2.5-9.4-4.4-13.9zM45 41.3c-3.1 0-6.2.4-9.2 1.2l-5-11c2.9-1.3 5.5-3.1 7.8-5.2 2.3-2.2 4.2-4.7 5.7-7.6 2.3 3.4 4.3 7.1 6 10.8 1.8 4.1 3.2 8.4 4.2 12.8-3.1-.7-6.3-1.1-9.5-1z"/><path transform="rotate(-62.787 54.434 20.318)" class="st0" d="M50.8 19.8h7.3v1h-7.3z"/><path class="st0" d="M63.1 24.6c-2.6.7-6.9 1.9-7.2 1.9l.1 1c.4 0 5.7-1.5 7.4-1.9l-.3-1z"/><path transform="rotate(-68.093 60.18 33.819)" class="st0" d="M59.7 30h1v7.6h-1z"/><path class="st0" d="M13.6 39.6c-2 1-3 3.2-2.5 5.1.3 1.1 1.1 2 2.2 2.6.7.3 1.4.5 2.1.5.5 0 1.1-.1 1.6-.3l.5-.2-3.4-8-.5.3zm.2 6.8c-.8-.4-1.4-1.1-1.7-1.9-.4-1.4.2-2.9 1.5-3.7l2.6 6c-.8.1-1.7 0-2.4-.4z"/></svg>