<svg version="1.1" id="Warstwa_1" xmlns="http://www.w3.org/2000/svg" x="0" y="0" viewBox="0 0 75.4 75.4" xml:space="preserve"><style>.st0{fill:#963a3c}</style><path class="st0" d="M37.5 73.1C18 73.1 2.2 57.2 2.2 37.7S18 2.4 37.5 2.4s35.4 15.9 35.4 35.4S57 73.1 37.5 73.1zm0-69.7C18.6 3.4 3.2 18.8 3.2 37.7s15.4 34.4 34.4 34.4S72 56.7 72 37.7C71.9 18.8 56.5 3.4 37.5 3.4z"/><path class="st0" d="M37.5 2.4C18 2.4 2.2 18.2 2.2 37.7S18 73.1 37.5 73.1s35.4-15.9 35.4-35.4S57 2.4 37.5 2.4zm0 69.7c-18.9 0-34.4-15.4-34.4-34.4S18.6 3.4 37.5 3.4s34.4 15.4 34.4 34.4-15.4 34.3-34.4 34.3z"/><path class="st0" d="M58.8 24c-.2-.8-.9-1.2-1.8-1.2h-2.8c-1.4 0-2 0-2.2-.1 0-.5.4-1.9.6-3 .1-.5.2-1 .4-1.6.3-1.4-.4-2.1-1.2-2.3-.4-.1-1.6-.2-2.5 1.6-.4.9-.9 1.7-1.5 2.6-1.2 1.7-2.5 3-3.4 3.8-.4.4-.7.6-.9.7h-5.8l1.7 9.8h4.8V33c.7.3 1.9.7 3.1 1l.2-1c-1.7-.4-3.6-1.2-3.6-1.2l-.7-.3v1.9h-2.9L39 25.6h4.3v5h1v-5.3c.7-.5 2.7-2.1 4.4-4.6.6-.9 1.2-1.8 1.6-2.7.4-.8.9-1.2 1.3-1.1.5.1.5.7.4 1.1-.1.5-.2 1-.4 1.6-.7 2.8-.8 3.5-.4 3.9.2.2.4.3 2.6.3H57c.5 0 .7.3.8.5.1.4 0 .9-.4 1.2l-.5.4.5.4c.3.2.3.7.3.8-.1.4-.3.8-.6 1l-.7.3.5.5c.2.2.3.7.2 1.1 0 .2-.2.6-.6.7l-.7.2.4.6c.3.4.3.9.1 1.3-.2.4-.6.6-1.2.6h-5.7c-.4 0-1.1-.1-1.9-.3l-.2 1c.9.2 1.7.4 2.2.4h5.7c1 0 1.7-.4 2.1-1.1.3-.5.3-1.2.1-1.8.4-.3.6-.6.8-1.1.2-.6.1-1.1-.1-1.6.4-.4.6-.9.7-1.4.1-.5 0-.9-.2-1.3.2-.8.4-1.5.2-2.2zM27.5 42.5h-5.7c-2.6 0-4.7 2.1-4.7 4.7v5.7c0 2.6 2.1 4.7 4.7 4.7h5.7c2.6 0 4.7-2.1 4.7-4.7v-5.7c0-2.6-2.1-4.7-4.7-4.7zm3.7 10.4c0 2-1.7 3.7-3.7 3.7h-5.7c-2 0-3.7-1.7-3.7-3.7v-5.7c0-2 1.7-3.7 3.7-3.7h5.7c2 0 3.7 1.7 3.7 3.7v5.7zm12.9-15h-5.7c-2.6 0-4.7 2.1-4.7 4.7v5.7c0 2.6 2.1 4.7 4.7 4.7h5.7c2.6 0 4.7-2.1 4.7-4.7v-5.7c0-2.6-2.1-4.7-4.7-4.7zm3.7 10.4c0 2-1.7 3.7-3.7 3.7h-5.7c-2 0-3.7-1.7-3.7-3.7v-5.7c0-2 1.7-3.7 3.7-3.7h5.7c2 0 3.7 1.7 3.7 3.7v5.7zm-19-22.6h-5.7c-2.6 0-4.7 2.1-4.7 4.7v5.7c0 2.6 2.1 4.7 4.7 4.7h5.7c2.6 0 4.7-2.1 4.7-4.7v-5.7c0-2.6-2.1-4.7-4.7-4.7zm3.7 10.5c0 2-1.7 3.7-3.7 3.7h-5.7c-2 0-3.7-1.7-3.7-3.7v-5.7c0-2 1.7-3.7 3.7-3.7h5.7c2 0 3.7 1.7 3.7 3.7v5.7z"/></svg>