<svg version="1.1" id="Warstwa_1" xmlns="http://www.w3.org/2000/svg" x="0" y="0" viewBox="0 0 75.4 75.4" xml:space="preserve"><style>.st0{fill:#8c97a2}</style><path class="st0" d="M37.7 21c-9.5 0-17.3 7.8-17.3 17.3s7.8 17.3 17.3 17.3S55 47.8 55 38.3 47.2 21 37.7 21zm0 33.6c-9 0-16.3-7.3-16.3-16.3S28.7 22 37.7 22 54 29.3 54 38.3s-7.3 16.3-16.3 16.3z"/><path class="st0" d="M37.5 26.7l-12.6 10 .6.8 2.9-2.3v10.3c0 1.9 1.5 3.4 3.4 3.4H43c1.9 0 3.4-1.5 3.4-3.4V35l3.3 2.6.6-.8-12.8-10.1zm8 18.7c0 1.3-1.1 2.4-2.4 2.4H31.9c-1.3 0-2.4-1.1-2.4-2.4V34.3l8-6.4 8 6.3v11.2z"/></svg>