<svg version="1.1" id="Warstwa_1" xmlns="http://www.w3.org/2000/svg" x="0" y="0" viewBox="0 0 75.4 75.4" xml:space="preserve"><style>.st0{fill:#963a3c}</style><path class="st0" d="M37.5 2.3C18 2.3 2.2 18.2 2.2 37.7S18 73 37.5 73s35.4-15.9 35.4-35.4S57 2.3 37.5 2.3zm0 69.7C18.6 72 3.2 56.6 3.2 37.7S18.6 3.3 37.5 3.3s34.4 15.4 34.4 34.4S56.5 72 37.5 72z"/><path class="st0" d="M22.2 45.4V19.2c0-1.5 1.2-2.6 2.6-2.6H48c1.5 0 2.6 1.2 2.6 2.6v27h1V19.1c0-2-1.6-3.6-3.6-3.6H24.9c-2 0-3.6 1.6-3.6 3.6v26.2c0 2 1.6 3.6 3.6 3.6h12.8v-1H24.8c-1.5.1-2.6-1-2.6-2.5z"/><path class="st0" d="M25.2 21.3h22.4v1H25.2zm0 5.7h22.4v1H25.2zm0 5.6h22.4v1H25.2zm15.2 29.9l5.4-4.3 2.4 4.8 2.4-1.3 1.6-.8-2.3-4.6 3.4-.4 3.2-.3-16.1-15.9v22.8zm1-20.5l12.9 12.8-6 .6 2.5 5-2.2 1.2-2.5-5-4.8 3.8V42z"/></svg>