<svg version="1.1" id="Warstwa_1" xmlns="http://www.w3.org/2000/svg" x="0" y="0" viewBox="0 0 75.4 75.4" xml:space="preserve"><style>.st0{fill:#963a3c}</style><path class="st0" d="M37.5 2.3C18 2.3 2.2 18.2 2.2 37.7S18 73.1 37.5 73.1s35.4-15.9 35.4-35.4S57 2.3 37.5 2.3zm0 69.8c-18.9 0-34.4-15.4-34.4-34.4S18.6 3.3 37.5 3.3s34.4 15.4 34.4 34.4-15.4 34.4-34.4 34.4z"/><path class="st0" d="M52.2 30.8v-8.5c0-2.3-1.9-4.1-4.1-4.1H33.4L22.9 27v27.1c0 2.1 1.7 3.7 3.7 3.8H48c2.3 0 4.1-1.9 4.1-4.1v-23zM33 19.7v4.1c0 1.6-1.3 2.9-2.8 2.9h-5.4l8.2-7zm18.2 34c0 1.7-1.4 3.1-3.1 3.1H26.6c-1.5 0-2.8-1.2-2.8-2.8V27.7h6.3c2.1 0 3.8-1.8 3.8-3.9v-4.7H48c1.7 0 3.1 1.4 3.1 3.1v31.5z"/><path class="st0" d="M36.3 33.5h8.5v1h-8.5zm-4.6.8l-.9-1-.8.6 1.8 1.9 2.3-2.6-.8-.7zm4.6 4.4h8.5v1h-8.5zm-4.6.8l-.9-1.1-.8.7 1.8 1.9 2.3-2.7-.8-.6zm4.6 3.7h8.5v1h-8.5zm-4.6.8l-.9-1-.8.6 1.8 1.9 2.3-2.7-.8-.6zm4.6 4.2h8.5v1h-8.5zm-4.6.8l-.9-1-.8.6 1.8 1.9 2.3-2.6-.8-.7z"/></svg>