<svg version="1.1" id="Warstwa_1" xmlns="http://www.w3.org/2000/svg" x="0" y="0" viewBox="0 0 75.4 75.4" xml:space="preserve"><style>.st0{fill:#963a3c}</style><path class="st0" d="M46.7 26.3c.9-2.8 1.1-5.8.5-9.1V17l-.2-.1c-2.6-1.6-6.1-2.6-9.3-2.6h-.2c-3.2 0-6.7 1-9.3 2.6l-.1.1v.2c-.5 3.3-.4 6.4.5 9.1 1.4 4.3 4.5 7.6 8.9 9.5l.2-.5.2.5c4.3-1.8 7.4-5.1 8.8-9.5zm-17.2-.4c-.8-2.5-.9-5.3-.5-8.3 2.5-1.4 5.7-2.3 8.7-2.3 3 0 6.2.9 8.7 2.3.5 3 .3 5.8-.5 8.3-1.3 4-4.1 7.1-8.2 9-4.1-1.9-6.9-5-8.2-9z"/><path class="st0" d="M37.6 2.4C18.1 2.4 2.2 18.2 2.2 37.7s15.9 35.4 35.4 35.4S73 57.2 73 37.7 57.1 2.4 37.6 2.4zm0 69.7c-18.9 0-34.4-15.4-34.4-34.4S18.6 3.4 37.6 3.4C56.5 3.4 72 18.8 72 37.8S56.5 72.1 37.6 72.1z"/><path class="st0" d="M65.5 30.4c-.2-1.3-.9-2.3-1.8-2.3-.4 0-.8.1-1.1.5-.7.6-1.1 1.6-1.1 2.7l-.4 3c-.2 1.1-.7 2.2-1.5 3-1.2 1.2-2.5 2.1-4 2.8-.3.2-.7.3-1 .4.2-.3.4-.6.6-.8.5-.7 1.1-1.3 1.8-1.8.5-.4.8-.9 1.1-1.4.5-1.1.4-2.4-.3-3-.4-.4-1-.6-1.7-.5-1 .1-1.9.7-2.5 1.5-.7.8-1.6 1.5-2.4 2.2-1.3 1-2.7 1.9-4.1 2.7-1.8.9-3.4 2.3-4.5 4-2.2 3.2-2.2 6.6-2 8.4l1.1 6H49l.1-.4c0-.2.1-.5.1-.9.4-2.8.7-4.2 1.2-5.1.5-.9 1.5-1.7 2.8-2.2 1.3-.5 2.5-1.2 3.7-2 1.2-.8 2.2-1.7 3.2-2.8l3.2-4.4c.8-1.2 1.4-2.5 1.6-4l.6-3.9v-1.7zm-1 1.2l-.6 3.9c-.2 1.3-.7 2.5-1.4 3.5l-3.1 4.4c-.9 1-1.9 1.9-3 2.6-1.1.8-2.2 1.4-3.5 1.9-1.5.6-2.6 1.5-3.3 2.7-.6 1-.8 2.5-1.3 5.4 0 .2-.1.4-.1.5h-6l-.9-5.1c-.2-1.6-.1-4.7 1.9-7.7 1-1.5 2.5-2.8 4.1-3.6 1.5-.8 3-1.7 4.3-2.8.9-.7 1.7-1.4 2.5-2.3.7-.9 1.5-1.1 1.9-1.2.4 0 .8 0 1 .2.3.3.4 1.1.1 1.9-.2.4-.4.7-.8 1-.7.6-1.4 1.2-1.9 2-.5.6-1 1.4-1.4 2.1l-.5 1 1.1-.3c.8-.2 1.7-.5 2.4-.9 1.6-.7 3-1.7 4.2-2.9.9-.9 1.6-2.2 1.8-3.5l.5-3c0-1 .4-1.7.8-2 .2-.2.3-.2.4-.2.2 0 .7.5.9 1.5-.1.2-.1.5-.1.9zm-36.1 7.6c-1.5-.7-2.9-1.6-4.1-2.7-.8-.7-1.6-1.4-2.3-2.1-.6-.9-1.6-1.5-2.6-1.6-.7-.1-1.3.1-1.7.5-.4.4-.6 1-.6 1.7 0 .4.1.9.3 1.3.2.5.6 1 1.1 1.4.7.5 1.3 1.1 1.8 1.8.2.3.4.5.6.8-.3-.1-.7-.3-1-.4-1.5-.7-2.8-1.6-4-2.8-.8-.8-1.3-1.8-1.5-3l-.4-2.9c0-1.1-.5-2.1-1.1-2.7-.4-.3-.8-.5-1.1-.5-.8.1-1.6 1-1.8 2.3v.7c0 .2 0 .5.1.8l.6 3.9c.2 1.4.8 2.8 1.6 4l3.2 4.5c.9 1 2 2 3.2 2.8 1.1.8 2.4 1.5 3.6 2 1.3.5 2.3 1.3 2.8 2.2.5.9.7 2.3 1.2 5.1l.2 1.4h7.7l1.1-6c.2-1.7.2-5.1-2.1-8.4-1.5-1.8-3-3.2-4.8-4.1zm5.5 12.2l-.9 5.1h-6c0-.2 0-.3-.1-.5-.5-2.9-.7-4.4-1.3-5.4-.7-1.1-1.8-2-3.3-2.7-1.2-.5-2.4-1.1-3.5-1.9-1.1-.8-2.1-1.7-3-2.6L12.6 39c-.7-1-1.2-2.3-1.4-3.5l-.6-3.9c0-.2 0-.4-.1-.6v-.5c.1-.9.6-1.5.9-1.5.1 0 .2 0 .4.2.4.3.8 1 .8 2.1l.4 3c.2 1.3.8 2.6 1.8 3.5 1.3 1.2 2.7 2.2 4.2 2.9.8.4 1.6.7 2.4.9l1.1.3-.5-1c-.4-.7-.8-1.4-1.4-2.1-.6-.7-1.2-1.4-1.9-2-.3-.3-.6-.6-.8-1-.2-.4-.2-.8-.2-1.1 0-.3.1-.6.3-.7.2-.2.6-.3 1-.2.7.1 1.4.5 1.9 1.2.8.8 1.6 1.5 2.5 2.2l.9.6c.1.1.2.1.3.2.6.4 1.2.8 1.9 1.2.1 0 .1.1.2.1.3.2.7.4 1 .6 1.7.9 3.1 2.1 4.1 3.6 2.3 3.2 2.3 6.3 2.1 7.9z"/></svg>