<svg version="1.1" id="Warstwa_1" xmlns="http://www.w3.org/2000/svg" x="0" y="0" viewBox="0 0 75.4 75.4" xml:space="preserve"><style>.st0{fill:#963a3c}</style><path class="st0" d="M37.5 2.3C18 2.3 2.2 18.2 2.2 37.7S18 73 37.5 73s35.4-15.9 35.4-35.4S57 2.3 37.5 2.3zm0 69.7C18.6 72 3.2 56.6 3.2 37.7S18.6 3.3 37.5 3.3s34.4 15.4 34.4 34.4S56.5 72 37.5 72z"/><path class="st0" d="M16.7 52.4c.1 3.6.6 5.6.6 5.7l1-.2s-.5-2-.6-5.5c-.1-3.2 1.4-4 3.2-4.6l-.3-.9c-1.9.6-4 1.7-3.9 5.5zM55 46.8c-.6-.2-1.3-.4-2.1-.7-1.8-.6-3.9-1.3-6.3-2.2-1.6-.6-2.7-1.7-3.1-3-.3-1-.2-2 .3-2.7.4-.7.8-1.4 1.1-2.1 1.5-3.3 2.1-6.5 2.1-9.6 0-.8-.1-1.6-.3-2.3-.1-.4-.2-.9-.4-1.4-.3-1-1.1-2.8-2.9-4.2-1.5-1.1-3.3-1.7-5.4-1.7h-.1c-1.8 0-3.4.4-4.8 1.3-3 1.9-4.1 5.6-4.2 8.3-.1 2.8.5 5.5 1.6 8.4.2.4.3.8.5 1.2.3.6.6 1.3 1.1 2.1.5.7.6 1.7.3 2.7-.4 1.3-1.5 2.4-3.1 3-2.4.9-4.6 1.7-6.3 2.2-.8.3-1.6.5-2.1.7l.3.9c.6-.2 1.3-.4 2.1-.7 1.8-.6 4-1.3 6.4-2.3 1.9-.7 3.2-2 3.7-3.7.1-.3.2-.7.2-1 1.2 1.3 2.6 2.3 4.5 2.3s3.3-1 4.5-2.3c0 .3.1.6.2 1s.3.8.5 1.1c.4.7 1.1 1.3 1.8 1.8.2.1.4.2.6.4s.4.2.7.3c2.4.9 4.6 1.7 6.4 2.3.8.3 1.6.5 2.1.7 1.7.6 3.3 1.5 3.2 4.6-.1 3.5-.6 5.5-.6 5.5l1 .2c0-.1.5-2.1.6-5.7-.1-3.6-2.2-4.7-4.1-5.4zM33.5 19c1.2-.8 2.6-1.2 4.2-1.2h.1c1.8 0 3.4.5 4.8 1.5 1.6 1.2 2.3 2.8 2.6 3.7.2.4.3.9.4 1.3.2.7.3 1.5.3 2.2 0 .9 0 1.8-.1 2.6-5.8-.2-10.2-3.4-11.3-5.6l-.5-.7-.6.9c-.7 1-1.9 2.6-3.6 3v-.2c0-2.5 1-5.8 3.7-7.5zm4.3 22.5c-3.2 0-5.3-4-6-5.8-1.2-2.8-1.9-5.4-2-8 2-.3 3.3-1.9 4.1-3 1.8 2.6 6.4 5.2 11.7 5.4-.3 1.8-.9 3.6-1.7 5.6-.8 1.7-3 5.8-6.1 5.8z"/><path class="st0" d="M63.8 35.7c-.2-.1-.5-.2-.8-.3-.7-.2-1.5-.5-2.3-.8-.5-.2-.8-.5-1-.9-.1-.3-.1-.6.1-.7.2-.3.3-.6.4-.8.6-1.3.8-2.5.8-3.7 0-.3 0-.6-.1-.9 0-.2-.1-.4-.2-.6-.2-.5-.5-1.2-1.2-1.7-.6-.5-1.4-.7-2.2-.7-.9 0-1.6.3-2 .5-1.2.8-1.7 2.3-1.7 3.4 0 1.2.2 2.4.8 3.7.1.2.2.5.4.8.1.2.1.5.1.7-.1.4-.5.7-1 .9-.9.3-1.7.6-2.3.8-.3.1-.6.2-.8.3-.6.2-1.7.6-1.6 2.4.1 1.4.2 2.2.2 2.2l1-.2s-.2-.7-.2-2c0-1 .4-1.2 1-1.4.2-.1.5-.2.8-.3.7-.2 1.5-.5 2.4-.8.7-.3 1.3-.8 1.5-1.4.4.3.9.6 1.5.6s1.1-.2 1.5-.6c.2.6.8 1.1 1.5 1.4.9.4 1.7.6 2.4.8.3.1.6.2.8.3.6.2 1 .4 1 1.4 0 1.3-.2 2-.2 2l1 .2s.2-.8.2-2.2c-.1-1.7-1.3-2.2-1.8-2.4zm-8-9.8c.3-.2.7-.4 1.4-.4.6 0 1.1.2 1.6.5.5.4.8.9.9 1.2.1.1.1.3.1.4.1.2.1.5.1.7v.6c-1.8-.2-3.3-1.2-3.7-1.9l-.4-.7-.5.7c-.2.2-.4.6-.7.8.1-.5.5-1.4 1.2-1.9zm1.5 7.8c-1 0-1.7-1.4-2-2-.4-.9-.6-1.8-.7-2.6.5-.2.9-.5 1.2-.9.8.9 2.3 1.7 4 1.8-.1.5-.3 1.1-.6 1.7-.2.7-1 2-1.9 2zm-39.5 1.8c.5 0 1-.2 1.5-.6.2.6.8 1.1 1.5 1.4.9.4 1.7.6 2.4.8.3.1.6.2.8.3.6.2 1 .4 1 1.4 0 1.3-.2 2-.2 2l1 .2s.2-.8.2-2.2c.1-1.8-1.1-2.2-1.6-2.4-.2-.1-.5-.2-.8-.3-.7-.2-1.5-.5-2.3-.8-.5-.2-.8-.5-1-.9-.1-.3-.1-.6.1-.7.1-.2.3-.5.4-.8.6-1.3.8-2.5.8-3.7 0-.3 0-.6-.1-.9 0-.2-.1-.4-.2-.6-.3-.5-.6-1.1-1.3-1.7-.6-.5-1.3-.7-2.2-.7-.7 0-1.4.2-2 .5-1.2.8-1.7 2.3-1.7 3.4 0 1.2.2 2.4.8 3.7.1.3.3.6.4.8.1.2.1.5.1.7-.1.4-.5.7-1 .9-.9.3-1.7.6-2.3.8-.3.1-.6.2-.8.3-.6.2-1.7.6-1.6 2.4.1 1.4.2 2.2.2 2.2l1-.2s-.2-.7-.2-2c0-1 .4-1.2 1-1.4.2-.1.5-.2.8-.3.7-.2 1.5-.5 2.4-.8.7-.3 1.3-.8 1.5-1.4.4.4.9.6 1.4.6zm0-1c-1 0-1.7-1.4-2-2-.4-.9-.6-1.8-.7-2.6.5-.2.9-.5 1.2-.9.8.9 2.3 1.7 4 1.8-.1.5-.3 1.1-.6 1.7-.2.6-.9 2-1.9 2zm-1.4-7.8c.4-.3.9-.4 1.4-.4.2 0 .9 0 1.6.5.5.4.8.9.9 1.2.1.1.1.3.1.4.1.2.1.5.1.7v.6c-1.8-.2-3.3-1.2-3.7-1.9l-.4-.7-.5.9c-.2.2-.4.6-.7.8.1-.7.4-1.6 1.2-2.1z"/></svg>