<svg version="1.1" id="Warstwa_1" xmlns="http://www.w3.org/2000/svg" x="0" y="0" viewBox="0 0 75.4 75.4" xml:space="preserve"><style>.st0{fill:#963a3c}</style><path class="st0" d="M37.7 2.4C18.2 2.4 2.4 18.3 2.4 37.8s15.9 35.4 35.4 35.4 35.4-15.9 35.4-35.4-16-35.4-35.5-35.4zM15.9 64.3c3.2-9.3 12-15.5 21.8-15.5S56.3 55 59.5 64.3c-5.9 4.9-13.5 7.8-21.8 7.8-8.2 0-15.8-2.9-21.8-7.8zm44.4-.7c-3-8.2-10.1-14-18.5-15.4 5.4-1.7 9.4-6.8 9.4-12.8 0-7.4-6-13.5-13.5-13.5s-13.5 6-13.5 13.5c0 6 3.9 11.1 9.4 12.8-8.4 1.4-15.5 7.3-18.5 15.4C7.9 57.3 3.4 48 3.4 37.8c0-18.9 15.4-34.4 34.4-34.4 18.9 0 34.4 15.4 34.4 34.4-.1 10.3-4.7 19.5-11.9 25.8zM37.7 47.8c-6.9 0-12.5-5.6-12.5-12.5s5.6-12.5 12.5-12.5 12.5 5.6 12.5 12.5-5.6 12.5-12.5 12.5z"/><path class="st0" d="M59.2 27.8v-5.2h-1v5.2h-5.1v1h5.1v5.1h1v-5.1h5.2v-1z"/></svg>