<svg version="1.1" id="Warstwa_1" xmlns="http://www.w3.org/2000/svg" x="0" y="0" viewBox="0 0 75.4 75.4" xml:space="preserve"><style>.st0{fill:#8c97a2}</style><path class="st0" d="M37.7 20.4c-9.5 0-17.3 7.8-17.3 17.3S28.2 55 37.7 55 55 47.3 55 37.7s-7.7-17.3-17.3-17.3zm0 33.6c-9 0-16.3-7.3-16.3-16.3s7.3-16.3 16.3-16.3S54 28.7 54 37.7 46.7 54 37.7 54z"/><path transform="matrix(.00243 -1 1 .00243 -.062 75.389)" class="st0" d="M37.3 32.7h1v10h-1z"/><path transform="rotate(-89.888 30.017 37.706)" class="st0" d="M24.5 37.2h11v1h-11z"/><path transform="rotate(-89.888 45.493 37.744)" class="st0" d="M40 37.2h11v1H40z"/><path transform="rotate(-89.888 47.914 37.749)" class="st0" d="M44.1 37.2h7.7v1h-7.7z"/><path transform="rotate(-89.888 27.596 37.7)" class="st0" d="M23.7 37.2h7.7v1h-7.7z"/><path transform="rotate(-89.888 25.718 37.695)" class="st0" d="M25 37.2h1.5v1H25z"/><path transform="rotate(-89.849 49.792 37.754)" class="st0" d="M49.1 37.3h1.5v1h-1.5z"/></svg>