<svg version="1.1" id="Warstwa_1" xmlns="http://www.w3.org/2000/svg" x="0" y="0" viewBox="0 0 75.4 75.4" xml:space="preserve"><style>.st0{fill:#963a3c}</style><path class="st0" d="M37.5 2.4C18 2.4 2.2 18.2 2.2 37.7S18 73.1 37.5 73.1s35.4-15.9 35.4-35.4S57 2.4 37.5 2.4zm0 69.7c-18.9 0-34.4-15.4-34.4-34.4 0-18.9 15.4-34.4 34.4-34.4s34.4 15.4 34.4 34.4-15.4 34.4-34.4 34.4z"/><path class="st0" d="M37.5 14.6l-.3-.2-25.8 20.4.6.8 7-5.5v22.4c0 3.6 3 6.6 6.6 6.6h23.2c3.6 0 6.6-3 6.6-6.6V29.9l7.7 6 .6-.8-26.2-20.5zm16.9 14.7v23.2c0 3.1-2.5 5.6-5.6 5.6H25.6c-3.1 0-5.6-2.5-5.6-5.6V29.3l17.2-13.6 17.4 13.6h-.2z"/></svg>