<svg version="1.1" id="Warstwa_1" xmlns="http://www.w3.org/2000/svg" x="0" y="0" viewBox="0 0 75.4 75.4" xml:space="preserve"><style>.st0{fill:#963a3c}</style><path class="st0" d="M37.7 2.4C18.2 2.4 2.4 18.2 2.4 37.7s15.9 35.4 35.4 35.4 35.4-15.9 35.4-35.4-16-35.3-35.5-35.3zm0 69.7c-18.9 0-34.4-15.4-34.4-34.4 0-18.9 15.4-34.4 34.4-34.4s34.4 15.4 34.4 34.4-15.4 34.4-34.4 34.4z"/><path class="st0" d="M48.7 33.4c2 4.7-.2 9.1-.7 9.9l-3.5 7.1-1.5 3H32.5L27 43.9l-.3-.5c-.4-.9-2.2-5.6.3-10.3 2-3.8 6.1-6.3 10.6-6.4h1c.2 0 .4 0 .5.1h.2c3.7.5 7.7 2.6 9.4 6.6l.9-.4c-.7-1.7-1.8-3.1-3.1-4.2-1.9-1.6-4.4-2.7-6.9-3h-.2c-.2 0-.4 0-.6-.1h-1.1c-4.8 0-9.3 2.8-11.5 6.9-2.7 5.1-.7 10.2-.3 11.3l5.9 10.2v5.1c0 .2 0 .5.1.7.2.7.5 1.3 1.1 1.8l1.4 1.2 1.8 1.5c.5.4 1.1.6 1.7.6.6 0 1.2-.2 1.7-.6l3.1-2.6c.8-.7 1.3-1.7 1.3-2.8v-4.9l5.1-10.2c.5-.9 2.9-5.7.7-10.8l-1.1.3zM42.9 59c0 .8-.3 1.5-.9 2h-.1l-3.1 2.6c-.3.2-.6.4-1 .4s-.7-.1-1-.4l-3.2-2.7c-.4-.3-.7-.8-.8-1.3 0-.2-.1-.3-.1-.5v-4.7h10.1V59zM19.7 33.3l-1.4-.4-5.4-1.4-.2 1 6.8 1.8zm5.2-9.2l.8-.6-4.1-5.5-.8.6 2.5 3.4z"/><path transform="rotate(-22.508 17.584 46.984)" class="st0" d="M14.5 46.5h6.1v1h-6.1z"/><path transform="rotate(-88.601 37.74 16.45)" class="st0" d="M34.4 15.9h6.8v1h-6.8z"/><path transform="rotate(-45.949 52.413 20.803)" class="st0" d="M49 20.3h6.9v1H49z"/><path transform="rotate(-10.887 60.213 31.31)" class="st0" d="M56.5 30.8h7.3v1h-7.3z"/><path transform="rotate(-65.832 57.512 45.775)" class="st0" d="M57 42.8h1v5.9h-1z"/><path class="st0" d="M44.4 40.8c.3 0 .6-.2.8-.5.1-.3.2-.7.3-1 0-.6-.1-1.1-.3-1.4-.1-.3-.4-.5-.8-.5h-.6l-.6-1.3.5-.5c.2-.2.3-.6.2-.9-.1-.4-.4-.8-.7-1.1-.3-.3-.8-.6-1.2-.8-.3-.1-.6 0-.8.2l-.6.5-1.1-.4v-.7c0-.4-.3-.7-.7-.8l-1.1-.1v.5l-.1-.5-1.1.2c-.4.1-.7.4-.7.8v.7l-1.1.4-.6-.5c-.2-.2-.5-.3-.8-.2-.5.2-.9.4-1.2.8-.3.3-.5.7-.7 1.1-.1.3 0 .6.2.9l.5.5-.6 1.3h-.6c-.3 0-.6.2-.8.5-.2.4-.3.9-.3 1.4 0 .4.1.7.3 1 .1.3.4.5.8.5h.6l.5 1.3-.6.6c-.3.3-.3.7-.1 1 .2.4.5.7.8.9l.9.6c.3.1.7.1.9-.1l.5-.5 1.2.6v.6c0 .4.3.8.8.8l1.2.1v-.5.5l1.2-.1c.4 0 .8-.4.8-.8v-.6l1.2-.6.5.5c.2.2.6.3.9.1.3-.2.7-.4.9-.6.3-.3.6-.6.8-.9.2-.3.1-.7-.1-1l-.6-.6.5-1.3h.7zm-1.5-.5l-.6 1.5c-.1.3 0 .6.2.9l.5.6c-.1.2-.3.4-.5.6-.2.2-.4.3-.6.4l-.5-.5c-.3-.2-.6-.3-.9-.1l-1.3.6c-.3.1-.5.4-.5.8v.6l-1 .1-1-.1v-.6c0-.3-.2-.6-.5-.8l-1.3-.6c-.3-.1-.7-.1-.9.1l-.5.5c-.2-.1-.4-.2-.6-.4-.2-.2-.4-.4-.5-.6l.5-.6c.2-.2.3-.6.2-.9l-.6-1.5c-.1-.3-.4-.5-.8-.5H31c-.1-.2-.1-.4-.1-.6 0-.3.1-.6.1-.9h.6c.3 0 .6-.2.8-.5l.6-1.4c.1-.3.1-.7-.1-.9l-.5-.5c.1-.2.2-.4.4-.6.3-.3.5-.4.7-.5l.6.5c.2.2.6.3.9.2l1.3-.5c.3-.1.5-.4.5-.8v-.6l.9-.1.9.1v.7c0 .3.2.7.5.8l1.3.5c.3.1.6.1.9-.2l.6-.5c.2.1.5.2.7.5.2.2.3.4.4.6l-.5.5c-.2.2-.3.6-.1.9l.6 1.4c.1.3.4.5.8.5h.6c.1.2.2.5.1.9 0 .2-.1.4-.1.6h-.6c-.4-.1-.7.1-.9.4z"/><path class="st0" d="M37.7 35.2c-2.2 0-3.9 1.8-3.9 3.9s1.8 3.9 3.9 3.9 3.9-1.8 3.9-3.9-1.8-3.9-3.9-3.9zm0 6.9c-1.6 0-2.9-1.3-2.9-2.9 0-1.6 1.3-2.9 2.9-2.9s2.9 1.3 2.9 2.9c0 1.6-1.3 2.9-2.9 2.9zm-2.8 14.1h5.9v1h-5.9zm0 1.6h5.9v1h-5.9zm0 1.5h5.9v1h-5.9z"/></svg>