<svg version="1.1" id="Warstwa_1" xmlns="http://www.w3.org/2000/svg" x="0" y="0" viewBox="0 0 75.4 75.4" xml:space="preserve"><style>.st0{fill:#963a3c}</style><path class="st0" d="M37.5 2.3C18 2.3 2.2 18.2 2.2 37.7S18 73.1 37.5 73.1s35.4-15.9 35.4-35.4S57 2.3 37.5 2.3zm0 69.8c-18.9 0-34.4-15.4-34.4-34.4S18.6 3.3 37.5 3.3s34.4 15.4 34.4 34.4-15.4 34.4-34.4 34.4z"/><path class="st0" d="M42.5 46.3l.5.9c2.7-1.5 4.7-4 5.5-6.9.3-1 .4-2 .4-3.1 0-1.7-.4-3.3-1-4.8l-.9.4c.6 1.4 1 2.8 1 4.3 0 .9-.1 1.9-.4 2.8-.8 2.8-2.7 5.1-5.1 6.4z"/><path class="st0" d="M54.2 17.3h-1v4.2L40.7 33.8c-.8-.8-2-1.3-3.2-1.3-2.6 0-4.8 2.1-4.8 4.8s2.1 4.8 4.8 4.8 4.8-2.1 4.8-4.8c0-1-.3-2-.9-2.7l12.5-12.4h4.4v-1h-4.1v-3.9zm-12.9 20c0 2.1-1.7 3.8-3.8 3.8s-3.8-1.7-3.8-3.8 1.7-3.8 3.8-3.8c1 0 1.8.4 2.5 1l-2.8 2.8.7.7 2.8-2.7c.4.6.6 1.3.6 2z"/><path class="st0" d="M37.6 26.9c1.8 0 3.5.5 5.1 1.3l.5-.9c-1.7-.9-3.6-1.4-5.5-1.4-6.3 0-11.3 5.1-11.3 11.3s5.1 11.3 11.3 11.3c1.9 0 3.7-.5 5.4-1.4l-.5-.9c-1.5.8-3.2 1.2-4.9 1.2-5.7 0-10.3-4.6-10.3-10.3s4.5-10.2 10.2-10.2z"/><path class="st0" d="M56.6 37.3v-.9c-.1-3.2-1.1-6.3-2.8-9.1l-.8.6c1.7 2.8 2.6 6.1 2.6 9.4 0 5.7-2.7 10.8-6.8 14.1-1.6 1.3-3.3 2.2-5.1 2.9-.1 0-.2.1-.3.1-.4.1-.7.2-1.1.3-.2.1-.4.1-.6.1-.3.1-.6.1-1 .2-.2 0-.5.1-.7.1-.3 0-.6.1-.9.1-.4 0-.8.1-1.3.1h-.4c-4.1 0-8-1.4-11.3-4-4.3-3.5-6.8-8.6-6.8-14.1 0-4.9 1.9-9.3 5.1-12.5.1-.1.2-.3.4-.4.3-.3.6-.6.9-.8.2-.1.3-.3.5-.4.3-.2.6-.5.9-.7.2-.1.4-.3.6-.4.3-.2.6-.4.9-.5.3-.1.5-.3.8-.4.3-.1.5-.3.8-.4.3-.1.7-.3 1-.4.2-.1.5-.2.7-.3l1.2-.3c.2 0 .4-.1.6-.1.5-.1.9-.2 1.4-.2.2 0 .3-.1.5-.1.6-.1 1.2-.1 1.8-.1h.1c3.4 0 6.7.9 9.5 2.7l.5-.8c-3-1.9-6.5-2.8-10-2.9h-.1c-.6 0-1.3 0-1.9.1-.2 0-.3.1-.5.1-.5.1-1 .1-1.5.2-.2 0-.4.1-.6.2-.4.1-.9.2-1.3.4-.2.1-.5.2-.7.3-.4.1-.7.3-1.1.4-.3.1-.6.3-.8.4-.3.1-.6.3-.8.4l-.9.6c-.2.1-.4.3-.7.4-.3.2-.6.5-1 .7-.2.1-.3.3-.5.4l-.9.9-.4.4-.6.6c-3 3.4-4.8 7.8-4.8 12.6 0 5.8 2.6 11.2 7.1 14.9.3.2.5.4.8.6v.1c.3.2.7.5 1.1.7l-4.9 4.9.7.7 5.1-5.1c2.8 1.5 5.9 2.3 9.1 2.3h.5c.4 0 .8 0 1.2-.1.4 0 .9-.1 1.3-.2h.3c2.1-.4 4.1-1.1 5.9-2.1l5.1 5.1.7-.7-5-5c5.6-3.2 9.2-9.2 9.2-16.1z"/></svg>