<svg version="1.1" id="Warstwa_1" xmlns="http://www.w3.org/2000/svg" x="0" y="0" viewBox="0 0 75.4 75.4" xml:space="preserve"><style>.st0{fill:#963a3c}</style><path class="st0" d="M37.7 73.1c-19.5 0-35.4-15.9-35.4-35.4S18.2 2.4 37.7 2.4s35.4 15.9 35.4 35.4-15.9 35.3-35.4 35.3zm0-69.7C18.8 3.4 3.4 18.8 3.4 37.7s15.4 34.4 34.4 34.4 34.4-15.4 34.4-34.4C72.1 18.8 56.7 3.4 37.7 3.4z"/><path class="st0" d="M49.1 47.5H29.7v-1h18.4V25.8H17.9v20.7h4.5v1h-5.5V24.8h32.2z"/><path class="st0" d="M62.4 47.5h-3.3v-1h2.3v-7.7l-4.1-8h-8.2v15.7h2.4v1h-3.4V29.8h9.8l4.5 8.7zm-36.3 5.2c-2.4 0-4.4-2-4.4-4.4s2-4.4 4.4-4.4c2.4 0 4.4 2 4.4 4.4s-2 4.4-4.4 4.4zm0-7.8c-1.9 0-3.4 1.5-3.4 3.4s1.5 3.4 3.4 3.4 3.4-1.5 3.4-3.4-1.5-3.4-3.4-3.4z"/><path class="st0" d="M55.2 52.7c-2.4 0-4.4-2-4.4-4.4s2-4.4 4.4-4.4c2.4 0 4.4 2 4.4 4.4s-2 4.4-4.4 4.4zm0-7.8c-1.9 0-3.4 1.5-3.4 3.4s1.5 3.4 3.4 3.4 3.4-1.5 3.4-3.4-1.5-3.4-3.4-3.4zM4.1 46.5h10.2v1H4.1zm6.7-4.5h3.5v1h-3.5z"/></svg>