<svg version="1.1" id="Warstwa_1" xmlns="http://www.w3.org/2000/svg" x="0" y="0" viewBox="0 0 75.4 75.4" xml:space="preserve"><style>.st0{fill:#963a3c}</style><path class="st0" d="M37.5 73.1C18 73.1 2.2 57.2 2.2 37.7S18 2.4 37.5 2.4s35.4 15.9 35.4 35.4S57 73.1 37.5 73.1zm0-69.7C18.6 3.4 3.2 18.8 3.2 37.7s15.4 34.4 34.4 34.4S72 56.7 72 37.7C71.9 18.8 56.5 3.4 37.5 3.4z"/><path class="st0" d="M37.5 2.4C18 2.4 2.2 18.2 2.2 37.7S18 73.1 37.5 73.1s35.4-15.9 35.4-35.4S57 2.4 37.5 2.4zm0 69.7c-18.9 0-34.4-15.4-34.4-34.4 0-18.9 15.4-34.4 34.4-34.4 18.9 0 34.4 15.4 34.4 34.4S56.5 72.1 37.5 72.1z"/><path class="st0" d="M37.5 49.1c-1.2 0-2.1 1-2.1 2.1s1 2.1 2.1 2.1c1.2 0 2.1-1 2.1-2.1s-.9-2.1-2.1-2.1zm0 3.3c-.6 0-1.1-.5-1.1-1.1s.5-1.1 1.1-1.1 1.1.5 1.1 1.1-.5 1.1-1.1 1.1z"/><path class="st0" d="M55.2 20.7H19.9c-3.2 0-5.7 2.6-5.7 5.7v23.3c0 3.2 2.6 5.7 5.7 5.7H37v2.3h-3.5v1h7.9v-1H38v-2.3h17.2c3.2 0 5.7-2.6 5.7-5.7V26.4c0-3.1-2.5-5.7-5.7-5.7zm4.7 25v4.1c0 2.6-2.1 4.7-4.7 4.7H19.8c-2.6 0-4.7-2.1-4.7-4.7V26.4c0-2.6 2.1-4.7 4.7-4.7h35.3c2.6 0 4.7 2.1 4.7 4.7v19.3z"/><path class="st0" d="M54.9 23.3H20.2c-1.7 0-3.1 1.4-3.1 3.1V45c0 1.7 1.4 3.1 3.1 3.1h34.7c1.7 0 3.1-1.4 3.1-3.1V26.4c0-1.7-1.4-3.1-3.1-3.1zM57 42.1V45c0 1.2-.9 2.1-2.1 2.1H20.2c-1.2 0-2.1-.9-2.1-2.1V26.4c0-1.2.9-2.1 2.1-2.1h34.7c1.2 0 2.1.9 2.1 2.1v15.7z"/><path class="st0" d="M45.5 28.4l.3.1-11.2 7.7-3-1c-.5-.2-1 0-1.3.5l-1.2 2.1.9.5 1.2-2.1 3.4 1.2 11.7-8.1-.1.4 1 .2.3-2.1-2-.3v.9z"/><path class="st0" d="M25.7 29.3h-1v15.1h22.8v-1H25.7z"/></svg>