<svg version="1.1" id="Warstwa_1" xmlns="http://www.w3.org/2000/svg" x="0" y="0" viewBox="0 0 75.4 75.4" xml:space="preserve"><style>.st0{fill:#963a3c}</style><path class="st0" d="M37.7 2.4C18.2 2.4 2.4 18.3 2.4 37.8s15.9 35.4 35.4 35.4 35.4-15.9 35.4-35.4-16-35.4-35.5-35.4zm0 69.7c-18.9 0-34.4-15.4-34.4-34.4 0-18.9 15.4-34.4 34.4-34.4s34.4 15.4 34.4 34.4-15.4 34.4-34.4 34.4z"/><path class="st0" d="M43.3 57c-.5.5-.7 1.1-.7 1.7 0 .6.3 1.3.7 1.7.5.5 1.1.7 1.7.7.6 0 1.3-.3 1.7-.7.9-.9.9-2.5 0-3.4-.9-.9-2.5-.9-3.4 0zm2.7 2.7c-.5.5-1.5.5-2 0-.3-.3-.4-.6-.4-1s.1-.7.4-1c.5-.5 1.5-.5 2 0 .6.6.6 1.5 0 2zm-1.9-24.3c1.1 0 2-.9 2-2s-.9-2-2-2-2 .9-2 2 .9 2 2 2zm0-3c.6 0 1 .4 1 1s-.4 1-1 1-1-.4-1-1 .5-1 1-1zm-6.6 3c1.1 0 2-.9 2-2s-.9-2-2-2-2 .9-2 2 .9 2 2 2zm0-3c.6 0 1 .4 1 1s-.4 1-1 1-1-.4-1-1 .4-1 1-1zm-6.7 3c1.1 0 2-.9 2-2s-.9-2-2-2-2 .9-2 2 .9 2 2 2zm0-3c.6 0 1 .4 1 1s-.4 1-1 1-1-.4-1-1 .5-1 1-1z"/><path class="st0" d="M51.2 26.2v-.7c0-3-1.2-5.8-3.3-7.9-2.1-2.1-4.9-3.3-7.9-3.3-5 0-9.4 3.4-10.7 8.2-.9-.2-1.9-.4-2.8-.4-2.9 0-5.7 1.1-7.8 3.1l.7.7c1.9-1.8 4.5-2.8 7.2-2.8 1 0 2.1.2 3.1.5l.5.2.1-.5c1-4.6 5.2-7.9 9.9-7.9 2.7 0 5.3 1.1 7.2 3 1.9 1.9 3 4.5 3 7.2 0 .4 0 .8-.1 1.1l-.1.5h.5c4.6.1 8.2 3.8 8.2 8.4 0 4.7-3.8 8.5-8.5 8.5H26.5c-5.8 0-10.4-4.7-10.4-10.4 0-1.5.3-2.9.9-4.2.6-1.3 1.4-2.4 2.4-3.4l-.7-.7c-1.1 1.1-2 2.3-2.6 3.7-.6 1.5-1 3-1 4.6 0 6.3 5.1 11.4 11.4 11.4h23.9c5.2 0 9.5-4.2 9.5-9.5 0-4.9-3.8-9-8.7-9.4zm-7.3 25.3c0-2-1.6-3.7-3.7-3.7-2 0-3.7 1.6-3.7 3.7s1.6 3.7 3.7 3.7c2 0 3.7-1.6 3.7-3.7zm-3.7 2.7c-1.5 0-2.7-1.2-2.7-2.7s1.2-2.7 2.7-2.7c1.5 0 2.7 1.2 2.7 2.7s-1.2 2.7-2.7 2.7z"/></svg>