<svg version="1.1" id="Warstwa_1" xmlns="http://www.w3.org/2000/svg" x="0" y="0" viewBox="0 0 75.4 75.4" xml:space="preserve"><style>.st0{fill:#963a3c}</style><path class="st0" d="M37.6 2.4C18.1 2.4 2.2 18.2 2.2 37.7s15.9 35.4 35.4 35.4S73 57.2 73 37.7 57.1 2.4 37.6 2.4zm0 69.7c-18.9 0-34.4-15.4-34.4-34.4 0-18.9 15.4-34.4 34.4-34.4S72 18.7 72 37.7c-.1 19-15.5 34.4-34.4 34.4z"/><path class="st0" d="M27.8 23.7h7.4v-1h-8.4v13h1zm29.9-5.9l-1.3 1.3-1.2 1.2.7.8 1.2-1.3 1.3-1.3z"/><path transform="rotate(-74.959 50.928 17.05)" class="st0" d="M50 16.5h1.8v1H50z"/><path class="st0" d="M44.2 16.3l.4 1.7 1-.2-.9-3.5-1 .3.5 1.7zm16 14.8l-1.8-.5-.2 1 3.4.9.3-1z"/><path transform="rotate(-14.984 59.173 25.299)" class="st0" d="M58.3 24.8h1.8v1h-1.8z"/><path class="st0" d="M20.4 24c.8-1.9 2.2-3.3 4.1-4.1l-.4-.9c-2.1.9-3.8 2.5-4.6 4.6l.9.4z"/><path class="st0" d="M20.7 36.2c1.9 1.4 4.2 2.2 6.7 2.2 6.3 0 11.5-5.2 11.5-11.5s-5.2-11.5-11.5-11.5-11.5 5.2-11.5 11.5c0 2.5.8 4.8 2.2 6.7l-4.6 4.6c-.7.7-.7 1.9 0 2.6.4.4.8.5 1.3.5s1-.2 1.3-.5l3.1-3.1 1.5-1.5zm6.7-19.8c5.8 0 10.5 4.7 10.5 10.5s-4.7 10.5-10.5 10.5c-2.5 0-4.8-.9-6.6-2.4 0 0-.1 0-.1-.1-.5-.4-.9-.9-1.3-1.3l-.1-.1c-1.5-1.8-2.4-4.1-2.4-6.6 0-5.8 4.7-10.5 10.5-10.5zm-8.2 19.9L18 35.1l.7-.7.6.6.6.6-.7.7zm-3.8 3.8c-.3.3-.9.3-1.2 0-.3-.3-.3-.9 0-1.2l3.1-3.1 1.2 1.2-3.1 3.1z"/><path class="st0" d="M53.5 30.6c0-.1 0-.3-.1-.4L46.1 23c-.1-.2-.2-.3-.4-.3h-5.5v1h5v6.9c0 .3.2.5.5.5h6.8v25.7c0 .4-.1.7-.4 1-.3.3-.6.4-1 .4H29.2c-.8 0-1.4-.6-1.4-1.4V40.3h-1v16.5c0 1.3 1.1 2.4 2.4 2.4h21.9c.6 0 1.2-.2 1.7-.7.4-.4.7-1 .7-1.7V30.6zm-7.3-.5v-5.6l5.6 5.6h-5.6z"/></svg>