<svg version="1.1" id="Warstwa_1" xmlns="http://www.w3.org/2000/svg" x="0" y="0" viewBox="0 0 75.4 75.4" xml:space="preserve"><style>.st0{fill:#963a3c}</style><path class="st0" d="M37.7 2.4C18.2 2.4 2.4 18.2 2.4 37.7s15.9 35.4 35.4 35.4 35.4-15.9 35.4-35.4-16-35.3-35.5-35.3zm0 69.7c-18.9 0-34.4-15.4-34.4-34.4S18.8 3.4 37.7 3.4s34.4 15.4 34.4 34.4-15.4 34.3-34.4 34.3z"/><path class="st0" d="M48.2 45.2L30.6 27.6c1.3-2.8.7-6.1-1.5-8.3-1.9-1.9-4.6-2.6-7.2-1.9l-.9.3 4.5 4.5.1 2.2-1.9 1.9-2.2-.1-4.5-4.5-.2.8c-.7 2.6 0 5.4 1.9 7.2 2.2 2.2 5.5 2.8 8.3 1.5l17.6 17.6c-1.3 2.8-.7 6.1 1.5 8.3 1.4 1.4 3.3 2.1 5.2 2.1.7 0 1.3-.1 2-.3l.8-.2-4.5-4.5-.1-2.2 1.9-1.9 2.2.1 4.5 4.5.2-.8c.7-2.6 0-5.4-1.9-7.2-2.1-2.2-5.4-2.8-8.2-1.5zm9.4 7.6l-3.5-3.5-3.1-.1-2.5 2.5.1 3.1 3.5 3.5c-2 .3-4-.4-5.4-1.8-2-2-2.4-5-1.1-7.5l.2-.3-18.7-18.6-.3.2c-2.5 1.3-5.5.8-7.5-1.1-1.4-1.4-2.1-3.4-1.8-5.4l3.5 3.5 3.1.1 2.5-2.5-.1-3.1-3.5-3.6c2-.3 4 .4 5.4 1.8 2 2 2.4 5 1.1 7.5l-.2.3L48 46.4l.3-.2c2.5-1.3 5.5-.8 7.5 1.1 1.4 1.5 2.1 3.5 1.8 5.5z"/><path class="st0" d="M50.6 24L41 33.6l.7.7 6.5-6.5 3.1-3.1 8.2-4.1-4.4-4.4-4.5 7.8zm7.2-3.7l-5.5 2.8 3-5.3 2.5 2.5zM22 49.2L17.2 54c-1.1 1.1-1.1 2.9 0 4 .5.5 1.3.8 2 .8s1.4-.3 2-.8L35 44l-4-4-9 9.2zM33.6 44L20.5 57.3c-.7.7-1.9.7-2.6 0-.7-.7-.7-1.9 0-2.6L31 41.5l2.6 2.5z"/></svg>