<svg version="1.1" id="Warstwa_1" xmlns="http://www.w3.org/2000/svg" x="0" y="0" viewBox="0 0 75.4 75.4" xml:space="preserve"><style>.st0{fill:#963a3c}</style><path class="st0" d="M72.9 37.7C72.9 18.8 58 3.4 39.3 2.4h-1.8C18 2.4 2.2 18.2 2.2 37.7S18 73.1 37.5 73.1h1.8c18.7-1 33.6-16.5 33.6-35.4zM37.5 72.1c-18.9 0-34.4-15.4-34.4-34.4 0-18.9 15.4-34.4 34.4-34.4h1.8c18.1.9 32.6 16 32.6 34.3S57.4 71.1 39.3 72c-.6.1-1.2.1-1.8.1z"/><path class="st0" d="M59 33.2h-2.1c-.2 0-.5-.1-.5-.4l-2-4.5c-.1-.2-.1-.5.1-.6l1.6-1.8c.4-.4.5-1.1.3-1.6-.4-1.1-1-2.1-1.9-2.9a8.71 8.71 0 00-3.4-2.1c-.5-.2-1.1 0-1.6.3l-2 1.8c-.2.2-.4.2-.6.1l-4-1.6c-.2-.1-.4-.3-.4-.6v-2.5c0-.8-.5-1.4-1.3-1.6l-3.4-.5-.1.5-.1-.5-3.5.5c-.7.2-1.3.8-1.3 1.6v2.5c0 .2-.1.5-.4.6l-4 1.6c-.2.1-.4 0-.6-.1l-2-1.8c-.4-.4-1-.5-1.6-.3-.9.3-2.2.9-3.4 2.1-.8.8-1.4 1.8-1.9 2.9-.2.6-.1 1.2.3 1.6l1.6 1.8c.2.2.2.4.1.6l-2 4.5c-.1.2-.3.4-.5.4h-2.1c-.6 0-1.2.4-1.5.9-.4.9-.8 2.3-.7 3.9.1 1 .3 1.9.7 2.8.3.6.8.9 1.5.9h2.2c.2 0 .5.2.6.4l1.8 4.7c.1.2 0 .4-.1.6l-1.9 2.1c-.5.5-.6 1.3-.2 1.9.6 1 1.3 1.9 2.2 2.7.8.7 1.7 1.3 2.7 1.7.6.3 1.2.2 1.7-.3l1.9-1.7c.2-.2.4-.2.7-.1l4.2 2c.2.1.3.3.3.5v2.3c0 .8.6 1.5 1.4 1.6l3.8.4V60v.5l3.8-.4c.8-.1 1.4-.8 1.4-1.6v-2.3c0-.2.1-.4.3-.5l4.2-2c.2-.1.5-.1.7.1l1.9 1.7c.5.4 1.1.5 1.7.3 1-.4 1.9-1 2.7-1.7.9-.8 1.6-1.7 2.2-2.7.4-.6.3-1.4-.2-1.9l-1.9-2.1c-.2-.2-.2-.4-.1-.6l1.8-4.7c.1-.2.3-.4.6-.4H59c.6 0 1.2-.4 1.5-.9.4-.9.6-1.9.7-2.8.1-1.7-.3-3.1-.7-3.9-.3-.6-.9-.9-1.5-.9zm.5 7.3c-.1.2-.3.3-.5.3h-2.2c-.7 0-1.3.4-1.5 1l-1.8 4.7c-.2.6-.1 1.2.3 1.6l1.9 2.1c.2.2.2.5.1.7-.5.9-1.2 1.7-2 2.4-.7.6-1.6 1.2-2.4 1.6-.2.1-.5.1-.6-.1l-1.9-1.7c-.5-.4-1.2-.5-1.7-.2l-4.2 2c-.5.3-.9.8-.9 1.4v2.3c0 .3-.2.6-.5.6l-3.7.4-3.9-.3c-.3 0-.5-.3-.5-.6v-2.3c0-.6-.4-1.2-.9-1.4l-4.2-2c-.6-.3-1.3-.2-1.7.2l-1.9 1.7c-.2.2-.4.2-.6.1-.9-.4-1.7-.9-2.4-1.6-.8-.7-1.5-1.5-2-2.4-.1-.2-.1-.5.1-.7l1.9-2.1c.4-.4.5-1.1.3-1.6l-1.8-4.7c-.2-.6-.8-1-1.5-1h-2.2c-.2 0-.4-.1-.5-.3-.4-.8-.6-1.6-.6-2.5-.1-1.5.3-2.7.6-3.5.1-.2.3-.3.5-.3h2.1c.6 0 1.2-.4 1.5-1l2-4.5c.3-.6.1-1.2-.3-1.7l-1.6-1.8c-.3-.3-.4-.5-.3-.7.4-1 .9-1.8 1.6-2.6 1.1-1.1 2.2-1.6 3-1.9.2-.1.4 0 .6.1l2 1.8c.5.4 1.1.5 1.7.3l4-1.6c.6-.2 1-.8 1-1.5v-2.5c0-.3.2-.5.4-.6l3.4-.4 3.3.4c.3.1.5.3.5.6v2.5c0 .7.4 1.2 1 1.5l4 1.6c.6.2 1.2.1 1.7-.3l2-1.8c.2-.1.4-.2.6-.1.8.3 2 .8 3 1.9.7.7 1.3 1.6 1.6 2.6.1.2 0 .4-.1.6L53.7 27c-.4.5-.5 1.1-.3 1.7l2 4.5c.3.6.8 1 1.5 1H59c.2 0 .4.1.5.3.3.8.7 2 .6 3.5 0 .8-.2 1.7-.6 2.5z"/><path class="st0" d="M37.7 26.4c-6.2 0-11.3 5.1-11.3 11.3S31.5 49 37.7 49 49 44 49 37.7s-5-11.3-11.3-11.3zm0 21.6c-5.7 0-10.3-4.6-10.3-10.3 0-5.7 4.6-10.3 10.3-10.3C43.4 27.4 48 32 48 37.7 48 43.4 43.4 48 37.7 48z"/></svg>