<svg version="1.1" id="Warstwa_1" xmlns="http://www.w3.org/2000/svg" x="0" y="0" viewBox="0 0 75.4 75.4" xml:space="preserve"><style>.st0{fill:#963a3c}</style><path class="st0" d="M37.5 2.4C18 2.4 2.2 18.2 2.2 37.7S18 73.1 37.5 73.1s35.4-15.9 35.4-35.4S57 2.4 37.5 2.4zm0 69.7c-18.9 0-34.4-15.4-34.4-34.4 0-18.9 15.4-34.4 34.4-34.4 18.9 0 34.4 15.4 34.4 34.4S56.5 72.1 37.5 72.1z"/><path transform="rotate(-89.86 37.585 37.725)" class="st0" d="M37.1 27.3h1v20.8h-1z"/><path transform="rotate(-89.888 21.54 37.686)" class="st0" d="M10.1 37.2H33v1H10.1z"/><path transform="rotate(-89.888 53.629 37.764)" class="st0" d="M42.2 37.3h22.9v1H42.2z"/><path transform="rotate(-89.888 58.648 37.776)" class="st0" d="M50.6 37.3h16v1h-16z"/><path transform="rotate(-89.888 16.52 37.674)" class="st0" d="M8.5 37.2h16v1h-16z"/><path transform="rotate(-89.888 12.627 37.665)" class="st0" d="M11.1 37.2h3.1v1h-3.1z"/><path transform="rotate(-89.872 62.542 37.786)" class="st0" d="M61 37.3h3.1v1H61z"/></svg>