<svg version="1.1" id="Warstwa_1" xmlns="http://www.w3.org/2000/svg" x="0" y="0" viewBox="0 0 75.4 75.4" xml:space="preserve"><style>.st0{fill:#963a3c}</style><path class="st0" d="M37.5 2.3C18 2.3 2.2 18.2 2.2 37.7S18 73 37.5 73s35.4-15.9 35.4-35.4S57 2.3 37.5 2.3zm0 69.7C18.6 72 3.2 56.6 3.2 37.7S18.6 3.3 37.5 3.3s34.4 15.4 34.4 34.4S56.5 72 37.5 72z"/><path class="st0" d="M21.7 23.9h3.5L27 50.5c-.4-.1-.8-.2-1.2-.2-2.7 0-5 2.2-5 5s2.2 5 5 5c1.3 0 2.5-.5 3.4-1.3H50l2.4-36.1H22.6v-2.5h31.2v-1H21.7v4.5zm4.1 35.4c-2.2 0-4-1.8-4-4s1.8-4 4-4 4 1.8 4 4-1.8 4-4 4zm25.5-35.4l-2.3 34H30c.5-.8.8-1.7.8-2.6 0-1.9-1.1-3.6-2.8-4.4l-1.8-27h25.1z"/><path class="st0" d="M25.8 53.2c-1.2 0-2.1 1-2.1 2.1s1 2.1 2.1 2.1 2.1-1 2.1-2.1-.9-2.1-2.1-2.1zm0 3.3c-.6 0-1.1-.5-1.1-1.1s.5-1.1 1.1-1.1 1.1.5 1.1 1.1-.4 1.1-1.1 1.1z"/></svg>