<svg version="1.1" id="Warstwa_1" xmlns="http://www.w3.org/2000/svg" x="0" y="0" viewBox="0 0 75.4 75.4" xml:space="preserve"><style>.st0{fill:#963a3c}</style><path class="st0" d="M37.5 2.4C18 2.4 2.2 18.2 2.2 37.7S18 73.1 37.5 73.1s35.4-15.9 35.4-35.4S57 2.4 37.5 2.4zm0 69.7c-18.9 0-34.4-15.4-34.4-34.4S18.6 3.4 37.5 3.4s34.4 15.4 34.4 34.4-15.4 34.3-34.4 34.3z"/><path class="st0" d="M47 25.5l-3.1-3.4-.7.7L47 27l5.4-6.2-.7-.7zm-11.9 8.1h8.5v1h-8.5zm-4.5.7l-1-1-.7.7 1.7 1.9 2.3-2.7-.7-.7zm4.5 4.4h8.5v1h-8.5zm-4.5.8l-1-1-.7.6 1.7 1.9 2.3-2.6-.7-.7zm4.5 3.7h8.5v1h-8.5zm-4.5.8l-1-1-.7.6 1.7 1.9 2.3-2.6-.7-.7zm4.5 4.3h8.5v1h-8.5zm-4.5.8l-1-1.1-.7.7 1.7 1.9 2.3-2.7-.7-.7z"/><path class="st0" d="M47.8 15.1c-2.5 0-4.8 1.2-6.2 3h-9.5L21.7 27v27.1c0 2.1 1.7 3.7 3.7 3.8h21.4c2.3 0 4.1-1.9 4.1-4.1V30.3c2.8-1.2 4.7-4 4.7-7.2.1-4.4-3.4-8-7.8-8zm-16 4.6v4.1c0 1.6-1.3 2.9-2.8 2.9h-5.4l8.2-7zM50 47.9v5.9c0 1.7-1.4 3.1-3.1 3.1H25.4c-1.5 0-2.8-1.2-2.8-2.8V27.8H29c2.1 0 3.8-1.8 3.8-3.9v-4.7h8.1c-.4.7-.7 1.4-.9 2.2-.1.5-.2 1.1-.2 1.7 0 4.4 3.6 7.9 7.9 7.9.8 0 1.5-.1 2.2-.3l.1 17.2zM47.8 30c-3.8 0-6.9-3.1-6.9-6.9 0-.5.1-1 .2-1.5.7-3.2 3.5-5.5 6.8-5.5 3.8 0 6.9 3.1 6.9 6.9s-3.2 7-7 7z"/></svg>