<svg version="1.1" id="Warstwa_1" xmlns="http://www.w3.org/2000/svg" x="0" y="0" viewBox="0 0 75.4 75.4" xml:space="preserve"><style>.st0{fill:#963a3c}</style><path class="st0" d="M37.5 73.1C18 73.1 2.2 57.2 2.2 37.7S18 2.4 37.5 2.4s35.4 15.9 35.4 35.4S57 73.1 37.5 73.1zm0-69.7C18.6 3.4 3.2 18.8 3.2 37.7s15.4 34.4 34.4 34.4S72 56.7 72 37.7C71.9 18.8 56.5 3.4 37.5 3.4z"/><path class="st0" d="M20.4 48.5h-1V44c-5.9-5.5-7.5-14.1-3.8-20.7C18.4 18.2 24 15 30.3 15c1 0 2 .2 3.1.4l-.2 1c-1-.2-2-.4-2.9-.4-5.9 0-11.2 3-13.8 7.8-3.5 6.2-1.9 14.5 3.8 19.6l.2.1v5z"/><path class="st0" d="M19.4 45.6h1v4.5h-1zm.2-1.5c-4.8-4.4-6.9-10.9-5.5-16.9.3-1.4.8-2.7 1.5-3.9l.9.5c-.6 1.1-1.1 2.4-1.4 3.6-1.4 5.7.6 11.8 5.2 16l-.7.7z"/><path class="st0" d="M19.6 44.1c-3.2-2.9-5.2-6.8-5.8-10.9l1-.1c.5 3.9 2.5 7.6 5.5 10.3l-.7.7z"/><path class="st0" d="M19.4 43.8h1v13.9h-1z"/><path class="st0" d="M20.4 57.7h-1V44c-2.7-2.5-4.5-5.7-5.3-9.2l-.3-1.5 1-.1c.1.5.2 1 .3 1.4.8 3.4 2.6 6.4 5.2 8.8l.2.1v14.2z"/><path class="st0" d="M19.4 45.6h1v2.9h-1zm18.1 12.6H19.9v-1h16.5v-5.4h4.1c2.7 0 4.9-2.2 4.9-4.9v-5.6h3.4c.2 0 .3-.1.3-.2s.1-.2 0-.3L45 30.2c-.1-1.9-.8-5.6-3.6-8.9-2.6-3-5.9-4.3-8.1-4.8l.2-1c2.4.6 5.9 1.9 8.7 5.2 3 3.5 3.7 7.4 3.9 9.4l4.1 10.5c.2.4.1.9-.1 1.3s-.7.6-1.1.6h-2.4v4.6c0 3.2-2.6 5.9-5.9 5.9h-3.1v5.2z"/><path class="st0" d="M19.4 48.5h1v9.3h-1zm35 1.8l-.9-.3c.5-1.5.8-3 .8-4.6 0-1.5-.2-2.9-.7-4.3l.9-.3c.5 1.5.7 3 .7 4.6.1 1.7-.2 3.4-.8 4.9zm3.1 2.1l-.9-.3c.8-2.2 1.2-4.4 1.2-6.8 0-2.2-.3-4.3-1-6.3l.9-.3c.7 2.1 1.1 4.4 1.1 6.6-.1 2.5-.5 4.9-1.3 7.1zm3.3 1.7l-.9-.3c1-2.7 1.5-5.5 1.5-8.4 0-2.7-.4-5.3-1.3-7.9l.9-.3c.9 2.6 1.3 5.4 1.3 8.2 0 2.9-.5 5.8-1.5 8.7z"/></svg>