<svg version="1.1" id="Warstwa_1" xmlns="http://www.w3.org/2000/svg" x="0" y="0" viewBox="0 0 75.4 75.4" xml:space="preserve"><style>.st0{fill:#963a3c}</style><path class="st0" d="M37.6 2.4C18.1 2.4 2.2 18.2 2.2 37.7s15.9 35.4 35.4 35.4S73 57.2 73 37.7 57.1 2.4 37.6 2.4zm0 69.7c-18.9 0-34.4-15.4-34.4-34.4S18.6 3.4 37.6 3.4C56.5 3.4 72 18.8 72 37.8S56.5 72.1 37.6 72.1z"/><path class="st0" d="M31.2 48c.3-.4.5-.9.6-1.5 0-.6-.2-1.1-.5-1.6.7-.2 1.4-.7 1.6-1.4.1-.2.1-.3.2-.5.1-.6-.1-1.3-.4-1.8.4-.1.8-.2 1.1-.5.6-.5.9-1.2.9-2 0-.4-.2-.8-.4-1.2h4.1c1.3.1 2.4-.8 2.6-2 .1-.6-.2-1.2-.6-1.7-.5-.5-1.2-.8-1.9-.8h-12c.4-.2.8-.5 1.1-.9.3-.3.6-.6.9-1 .3-.4.3-.8.1-1.2-.2-.4-.6-.6-1.1-.6h-7.9c-.7 0-1.4.2-2 .5-3.2 1.9-5.2 5.3-5.3 8.9-.1 3.7 1.8 7.2 4.8 9.2.8.5 1.7.8 2.7.8h9.3c.9.1 1.6-.2 2.1-.7zm-13.4-.8c-2.8-1.9-4.5-5.1-4.4-8.4.1-3.3 1.9-6.4 4.8-8.1.4-.3.9-.4 1.5-.4h7.9c.1 0 .2.1.2.1v.2c-.2.3-.5.6-.7.9-1.1 1.1-2.6 1.5-3.7 1.6h-1.7l-.1 1c.3 0 1 .1 1.7 0h15c.4 0 .9.2 1.2.5.3.3.4.6.3.9-.1.6-.7 1.1-1.5 1.1h-5.7l-.1 1c.6.1 1.1.6 1.1 1.3 0 .4-.2.9-.5 1.2-.2.2-.5.3-.9.3h-3.1l2 1c.7.3 1.1 1 1 1.7 0 .1 0 .2-.1.3-.2.5-.7.8-1.3.8h-5.4l4.3 1c.7.2 1.2.8 1.1 1.5 0 .3-.1.6-.3.9-.3.3-.7.5-1.1.5H20c-.8-.3-1.6-.5-2.2-.9z"/><path class="st0" d="M54.1 18.2H32.7c-1.9 0-3.5 1.6-3.5 3.5v6.8h1v-6.8c0-1.4 1.1-2.5 2.5-2.5h21.4c1.4 0 2.5 1.1 2.5 2.5v32c0 1.4-1.1 2.5-2.5 2.5H32.7c-1.4 0-2.5-1.1-2.5-2.5V51h-1v2.7c0 1.9 1.6 3.5 3.5 3.5h21.4c1.9 0 3.5-1.6 3.5-3.5v-32c0-1.9-1.6-3.5-3.5-3.5z"/></svg>