<svg version="1.1" id="Warstwa_1" xmlns="http://www.w3.org/2000/svg" x="0" y="0" viewBox="0 0 75.4 75.4" xml:space="preserve"><style>.st0{fill:#963a3c}</style><path class="st0" d="M37.6 2.4C18.1 2.4 2.2 18.2 2.2 37.7s15.9 35.4 35.4 35.4S73 57.2 73 37.7 57.1 2.4 37.6 2.4zm0 69.7c-18.9 0-34.4-15.4-34.4-34.4S18.6 3.4 37.6 3.4 72 18.8 72 37.8 56.5 72.1 37.6 72.1z"/><path class="st0" d="M57.9 21.3l-.2-.1c-5.7-3.5-13.3-5.6-20.3-5.6-3.9 0-8.2.7-12.3 2h-.2c-2.7.9-5.2 2-7.6 3.4l-.2.1v.2c-.7 4.2-.8 8.3-.3 12.2.2 1.5.5 3.1.8 4.5.1.5.2 1 .4 1.4 0 .1 0 .1.1.2.1.4.3.9.4 1.3 0 .1.1.3.1.4.1.4.3.7.4 1.1.1.2.2.4.2.6.1.3.2.6.4.9.1.3.3.5.4.8l.3.6c.2.5.5 1 .8 1.5l.3.6 8-8.4 2.7-3.1-.1-.3c-1.1-3.4-.3-7.2 2.1-9.6 2-2.1 5-3.1 7.8-2.6.2 0 .2.2.3.3 0 .1 0 .2-.1.4l-4.2 4.4c-.4.5-.7 1.1-.6 1.8 0 .6.3 1.2.8 1.6l3.1 3.2c.4.5 1.1.8 1.8.8.6 0 1.1-.2 1.5-.6l4.3-4.4c.1-.1.2-.1.4 0 .1 0 .2.1.2.2.5 3-.4 6-2.5 8.2-2.4 2.5-6 3.3-9.3 2.2l-.3-.1-6.8 7.1.4.3-.4-.3-4.6 4.9.3.3c3.2 3.2 7 5.8 11.3 7.8l.2.1.2-.1c9.4-4.1 15.9-11.2 19-20.4 1.9-5.9 2.3-12.5 1.1-19.6l-.1-.2zm-2 19.2c-2.9 9.1-9.2 16-18.4 20.1-4-1.8-7.5-4.2-10.5-7.1l3.9-4.2 6.4-6.7c3.6 1.2 7.5.2 10-2.5 2.2-2.4 3.3-5.8 2.7-9 0-.4-.4-.8-.8-1-.5-.2-1.1-.1-1.4.3l-4.3 4.4c-.2.2-.4.3-.8.3s-.8-.2-1-.4l-3.1-3.3c-.3-.2-.4-.5-.5-.9 0-.4.1-.7.4-1l4.1-4.4c.4-.3.5-.8.4-1.3-.1-.5-.5-.9-1-1-3.2-.5-6.5.6-8.8 2.9-2.5 2.7-3.5 6.7-2.4 10.4l-2.5 2.8-6.8 7.2c-.2-.4-.5-.9-.7-1.3-.1-.3-.2-.5-.4-.8-.1-.2-.2-.4-.2-.6-.1-.4-.3-.7-.4-1.1 0-.1-.1-.2-.1-.3-.2-.4-.3-.8-.4-1.2v-.1c-.1-.5-.3-.9-.4-1.4-1.6-5.5-1.8-11.3-.9-17.5 2.3-1.3 4.7-2.4 7.3-3.2 4.1-1.3 8.3-2 12.1-2 6.7 0 14 2 19.5 5.3 1.1 6.7.8 12.9-1 18.6z"/></svg>