<svg version="1.1" id="Warstwa_1" xmlns="http://www.w3.org/2000/svg" x="0" y="0" viewBox="0 0 75.4 75.4" xml:space="preserve"><style>.st0{fill:#8c97a2}</style><path class="st0" d="M37.7 21c-9.5 0-17.3 7.8-17.3 17.3s7.8 17.3 17.3 17.3S55 47.8 55 38.3 47.3 21 37.7 21zm0 33.6c-9 0-16.3-7.3-16.3-16.3S28.7 22 37.7 22 54 29.3 54 38.3s-7.3 16.3-16.3 16.3z"/><path class="st0" d="M43.8 46.7c0 .7-.5 1.2-1.2 1.2H31.1c-.7 0-1.2-.5-1.2-1.2V29.9c0-.7.5-1.2 1.2-1.2h11.5c.7 0 1.2.5 1.2 1.2v7.3h1v-7.3c0-1.2-1-2.2-2.2-2.2H31.1c-1.2 0-2.2 1-2.2 2.2v16.8c0 1.2 1 2.2 2.2 2.2h11.5c1.2 0 2.2-1 2.2-2.2v-4h-1v4z"/><path class="st0" d="M31.3 30.8h11.1v1H31.3zm0 3.1h11.1v1H31.3zm0 3.1h11.1v1H31.3zm20.4-1.3l-1.7-2-10.2 8.6-1.6 3 3.1-.9 8.8-7.3.1.7-3.7 3.1.6.8 4.1-3.4-.2-1.8.7-.8zm-10.8 7.7l-.8.2.4-.7 9.4-7.8.4.5-9.4 7.8zm-5.5.4l-1.1-2.6-.8 1.8-1.4-3.2-.2 4.2h-.6v1h1.6v-.9l.6 1.3.8-1.7.6 1.7 1.3-1 .7.7h1v-1h-.5l-1.1-1z"/></svg>