<svg xmlns="http://www.w3.org/2000/svg" viewBox="0 0 65.8 52.1"><path d="M50.4 15.1c0-.1 0-.3-.1-.4v-.1c0-.1-.1-.2-.2-.2l-.1-.1c-.1-.1-.1-.1-.2-.1h-.1c-.1 0-.2-.1-.4-.1h-33c-.1 0-.2 0-.4.1h-.1c-.1 0-.1.1-.2.1 0 0-.1 0-.1.1l-.2.2v.1c0 .1-.1.2-.1.3v22c0 .1 0 .2.1.3v.1c0 .1.1.2.1.2l.1.1c.1.1.1.1.2.1h.1c.1 0 .2.1.4.1h33c.1 0 .2 0 .4-.1h.1c.1 0 .1-.1.2-.1 0 0 .1 0 .1-.1.1-.1.1-.1.1-.2v-.1c0-.1.1-.2.1-.3V15.1zm-3.6 1L34.1 27.6c-.7.7-1.8.6-2.5 0L19 16.1h27.8zm1.6 1.3v17.5l-10-8.5 10-9zm-21 9l-10 8.4V17.4l10 9zM19.1 36l9.8-8.2 1.4 1.3c.7.7 1.7 1 2.6 1 .9 0 1.9-.3 2.6-1l1.4-1.3 9.7 8.3H19.1z" fill="#8c97a2"/></svg>