<svg class="SK_flag" xmlns="http://www.w3.org/2000/svg" viewBox="0 0 55.3 43.3"><path class="st0" d="M10.9 11.9h33.6v19.6H10.9z"/><path class="st1" d="M10.9 18.4h33.6v13.1H10.9z"/><path class="st2" d="M10.9 24.9h33.6v6.5H10.9z"/><g class="st3"><path class="st4" d="M16 16.5c-.4 0-.3.5-.3.8-.1 1.9-.3 3.8.2 5.6.4 1.5 1.5 2.7 2.8 3.5.3.2.6.4 1 .5.4-.1.7-.3 1-.5 1.3-.8 2.3-2 2.8-3.4.6-1.9.4-3.8.2-5.7 0-.3 0-.7-.4-.7H16z"/><path class="st5" d="M19.7 16.8v9.8c-4.5-2.2-4-5.8-3.7-9.8h3.7zm0 0v9.8c4.5-2.2 4-5.8 3.7-9.8h-3.7z"/><path class="st4" d="M20.2 19.4c.5 0 1 .1 1.4.2-.1-.5-.1-.7 0-1.2-.5.1-1 .2-1.4.2h-1.1c-.5 0-1-.1-1.4-.2.1.5.1.7 0 1.2.5-.1 1-.2 1.4-.2h1.1zm.4 1.8c.5 0 1 .1 1.4.2-.1-.5-.1-.7 0-1.2-.5.1-.9.2-1.4.2h-1.9c-.5 0-1-.1-1.4-.2.1.5.1.7 0 1.2.5-.1.9-.2 1.4-.2h1.9z"/><path class="st4" d="M19.1 17.1c.1.5.2.9.2 1.4v6.1h.8v-6.1c0-.5.1-1 .2-1.4-.5.2-.7.2-1.2 0"/><path class="st6" d="M17.8 23.2c-.5 0-1 .4-1 1v.1c.2.3.4.5.7.8.1 0 .2.1.3.1.5 0 1-.4 1-1s-.4-1-1-1"/><path class="st6" d="M19.7 22.6c-.7 0-1.2.6-1.2 1.2 0 .7.6 1.2 1.2 1.2s1.2-.6 1.2-1.2c0-.7-.5-1.2-1.2-1.2"/><path class="st6" d="M21.6 23.2c-.5 0-1 .4-1 1 0 .5.4 1 1 1 .1 0 .2 0 .3-.1.3-.3.5-.5.7-.8v-.1c0-.6-.5-1-1-1"/><path class="st6" d="M17 24.4c.6.8 1.5 1.5 2.7 2.1 1.2-.6 2.1-1.3 2.7-2.1H17z"/></g></svg>