<svg version="1.1" id="Warstwa_1" xmlns="http://www.w3.org/2000/svg" xmlns:xlink="http://www.w3.org/1999/xlink" x="0" y="0" viewBox="0 0 55.3 43.3" xml:space="preserve"><style>.st1{clip-path:url(#SVGID_2_);fill:#bd0034}</style><g id="UNITED_KINGDOM_1_"><defs><path id="SVGID_1_" d="M10.9 11.8h33.6v19.6H10.9z"/></defs><clipPath id="SVGID_2_"><use xlink:href="#SVGID_1_" overflow="visible"/></clipPath><path clip-path="url(#SVGID_2_)" fill="#fff" d="M10.9 11.8h33.6v19.6H10.9z"/><path class="st1" d="M33.4 18.9l11.1-6.2v-.9h-.8l-12.6 7.1zm-.6 5.8l11.7 6.5v-1.3l-9.3-5.2zM10.9 13.3l9.9 5.6h2.4L10.9 12zm11.7 11.4l-11.7 6.6v.1H13l12-6.7z"/><path d="M42.2 11.8H30.4v6.6zm-17 0H13.5l11.7 6.6zm19.3 7.1v-4.5l-8 4.5zm0 10.2v-4.4h-8zm-30.3 2.3h11v-6.2zm16.2 0h11.1l-11.1-6.2zm-19.5-6.7v4.6l8.2-4.6zm0-5.8h8.2l-8.2-4.7z" fill="#1a237b" clip-path="url(#SVGID_2_)"/><path class="st1" d="M26.3 11.8V20H10.9v3.5h15.4v7.9h3.1v-7.9h15.1V20H29.4v-8.2z"/></g></svg>