<svg width="126" height="42" viewBox="0 0 126 42" fill="none" xmlns="http://www.w3.org/2000/svg">
<path fill-rule="evenodd" clip-rule="evenodd" d="M25.9682 35.9595C24.6239 35.9595 23.5342 37.0474 23.5342 38.3895C23.5342 39.7316 24.6239 40.8196 25.9682 40.8196C27.3126 40.8196 28.4023 39.7316 28.4023 38.3895C28.4023 37.0474 27.3126 35.9595 25.9682 35.9595Z" fill="#0E151A"/>
<path fill-rule="evenodd" clip-rule="evenodd" d="M2.43407 10.4894C3.7784 10.4894 4.86804 9.40145 4.86804 8.05932C4.86804 6.7173 3.7784 5.62915 2.43407 5.62915C1.08974 5.62915 0 6.7173 0 8.05932C0 9.40145 1.08974 10.4894 2.43407 10.4894Z" fill="#0E151A"/>
<path fill-rule="evenodd" clip-rule="evenodd" d="M10.2789 5.61015C11.6233 5.61015 12.713 4.5223 12.713 3.18017C12.713 1.83805 11.6233 0.75 10.2789 0.75C8.93461 0.75 7.84497 1.83805 7.84497 3.18017C7.84497 4.5223 8.93461 5.61015 10.2789 5.61015Z" fill="#0E151A"/>
<path fill-rule="evenodd" clip-rule="evenodd" d="M21.0229 27.7168H21.0228C20.5433 27.7168 20.0996 27.6167 19.7185 27.3838C19.2905 27.0101 18.7367 26.7759 18.1235 26.7759C16.7792 26.7759 15.6894 27.864 15.6894 29.2061V29.9847V30.0157L15.6863 30.0158C15.6694 30.8217 15.0125 31.4705 14.2012 31.4705C13.3899 31.4705 12.7329 30.8217 12.716 30.0157H12.7128V29.9847V27.9525V20.9199V17.513V17.4914C12.7128 16.1069 13.8369 14.9847 15.2236 14.9847C15.802 14.9847 16.328 15.1877 16.7525 15.5157C17.1408 15.7773 17.6197 15.9248 18.1235 15.9248C18.6465 15.9248 19.135 15.7642 19.5317 15.4839C19.9496 15.1739 20.4621 14.984 21.0228 14.984H21.0229C22.4095 14.984 23.5337 16.1063 23.5337 17.4907V18.5044L23.5341 18.5048V25.4746C23.4001 26.7329 22.3188 27.7168 21.0229 27.7168ZM31.3783 25.6551L31.3794 25.6761C31.3795 27.0182 32.4717 28.1075 33.8161 28.1075C35.1603 28.1075 36.2501 27.0195 36.2501 25.6775V17.1362C36.2501 15.9281 35.3645 14.9336 34.2078 14.7455C34.0795 14.7247 33.9503 14.706 33.8161 14.706C33.7035 14.706 33.5961 14.7244 33.4876 14.7391C32.3002 14.9007 31.382 15.9064 31.382 17.1362V20.2031H31.3788L31.3787 20.4656C31.3788 21.2861 30.7124 21.9513 29.8905 21.9513C29.069 21.9513 28.4034 21.2872 28.4024 20.4674L28.4022 20.4655V20.2031V18.4331L28.4024 18.4312V6.52529C28.4024 5.18326 27.3125 4.09522 25.9682 4.09532C24.6239 4.09532 23.5341 5.18326 23.5341 6.52529V9.24486V11.2771V11.4001C23.4705 12.1621 22.8257 12.763 22.0458 12.763C21.2661 12.763 20.6212 12.1621 20.5576 11.4001V11.2771V9.24486V3.43862C20.5576 2.09649 19.4678 1.00854 18.1235 1.00854C16.7792 1.00854 15.6894 2.09649 15.6894 3.43862V9.24486V10.5741V11.2771C15.6894 12.0978 15.0232 12.763 14.2011 12.763C13.3792 12.763 12.7128 12.0978 12.7128 11.2771V11.1744V11.0119C12.7128 9.66982 11.6231 8.58187 10.2787 8.58197C8.93441 8.58197 7.84467 9.66982 7.84467 11.0119V13.8459C7.84497 13.8567 7.84797 13.8667 7.84797 13.8776V15.9099C7.84797 15.9207 7.84777 15.9136 7.84757 15.9231C7.83029 16.7288 7.17071 17.3957 6.35955 17.3957C5.5389 17.3957 4.87373 16.7324 4.87173 15.9136H4.86804V15.8912C4.86814 14.5491 3.7784 13.4612 2.43407 13.4612C1.08974 13.4612 0 14.5491 0 15.8912V24.4324C0 25.7745 1.08974 26.8626 2.43407 26.8626C3.7783 26.8626 4.86814 25.7745 4.86814 24.4324V21.3656L4.87123 21.1031C4.87133 20.2826 5.5376 19.6174 6.35965 19.6174C7.17081 19.6174 7.83059 20.2684 7.84777 21.074C7.84797 21.0848 7.84797 21.0924 7.84797 21.1031V21.3656V23.1355C7.84787 23.1464 7.84497 23.1563 7.84477 23.1671V35.0443C7.84477 36.3864 8.93441 37.4744 10.2787 37.4744C11.6231 37.4744 12.7128 36.3864 12.7128 35.0443L12.7279 34.9047C12.8568 34.2151 13.4729 33.6922 14.2011 33.6922C14.9293 33.6922 15.533 34.2151 15.6618 34.9048L15.6894 35.1781V37.2103V39.2621C15.6894 40.6043 16.7792 41.6923 18.1235 41.6923C19.4678 41.6923 20.5576 40.6043 20.5576 39.2621V33.4543C20.5573 33.442 20.554 33.4305 20.554 33.4182V31.3336C20.554 31.3212 20.5548 31.3091 20.5551 31.297L20.5576 31.2546C20.5998 30.4504 21.2647 29.8094 22.0806 29.8094C22.8159 29.8094 23.4291 30.3285 23.5742 31.0194C23.7903 32.1406 24.7821 32.9878 25.9682 32.9878C27.3125 32.9878 28.4024 31.8998 28.4024 30.5578V27.6931L28.4022 27.6918V25.6588L28.4024 25.6575V25.6551L28.4025 25.655C28.4046 24.8363 29.0697 24.173 29.8904 24.173C30.7111 24.173 31.3762 24.8362 31.3783 25.6551Z" fill="#0E151A"/>
<path fill-rule="evenodd" clip-rule="evenodd" d="M33.8161 31.0793C32.4718 31.0793 31.3821 32.1673 31.3821 33.5094C31.3821 34.8514 32.4718 35.9395 33.8161 35.9395C35.1604 35.9395 36.2501 34.8514 36.2501 33.5094C36.2501 32.1673 35.1604 31.0793 33.8161 31.0793Z" fill="#0E151A"/>
<path fill-rule="evenodd" clip-rule="evenodd" d="M18.512 18.969C18.3847 18.9486 18.2565 18.9299 18.1235 18.9299C17.9902 18.9299 17.8619 18.9485 17.7346 18.969C16.5763 19.156 15.6895 20.1511 15.6895 21.3601C15.6895 22.0455 15.9761 22.662 16.4334 23.1039C16.8714 23.527 17.4657 23.7902 18.1235 23.7902C18.2565 23.7902 18.3847 23.7716 18.512 23.7511C19.0138 23.6702 19.4646 23.4414 19.814 23.1036C20.271 22.6619 20.5576 22.0454 20.5576 21.3601C20.5576 20.6682 20.2647 20.0475 19.8 19.6049C19.4524 19.2739 19.0075 19.049 18.512 18.969Z" fill="#0E151A"/>
<path fill-rule="evenodd" clip-rule="evenodd" d="M51.4726 8.81838C51.4726 8.62704 51.4388 8.43591 51.3718 8.24468C51.3049 8.05354 51.2077 7.88306 51.0797 7.73332C50.9521 7.58359 50.7972 7.46089 50.6155 7.36512C50.4335 7.26955 50.2276 7.22177 49.9977 7.22177H47.9676V10.4149H49.9977C50.2276 10.4149 50.435 10.3687 50.6202 10.2762C50.8054 10.1838 50.9602 10.0643 51.0846 9.91779C51.2091 9.77115 51.3049 9.60206 51.3718 9.41103C51.4388 9.2197 51.4726 9.02248 51.4726 8.81838ZM44.262 4.63099C44.262 4.49732 44.297 4.39058 44.3674 4.31077C44.4374 4.23126 44.5428 4.19116 44.6833 4.19116H50.8023C51.2426 4.19116 51.6574 4.25201 52.0468 4.37292C52.4363 4.49412 52.7938 4.66132 53.1194 4.87479C53.4451 5.08837 53.7384 5.34325 54.0002 5.63963C54.2621 5.93591 54.4839 6.25613 54.6659 6.60039C54.848 6.94465 54.9869 7.30626 55.0826 7.68554C55.1783 8.06461 55.2261 8.44878 55.2261 8.83733C55.2261 9.41103 55.1222 9.97186 54.9149 10.52C54.7076 11.0682 54.4123 11.5556 54.029 11.9828C53.6462 12.4098 53.1863 12.7555 52.6502 13.0199C52.1141 13.2845 51.5205 13.4199 50.8692 13.4262H47.9676V17.9767C47.9676 18.251 47.8209 18.3878 47.5273 18.3878H44.6833C44.5556 18.3878 44.4533 18.3544 44.3767 18.2874C44.3001 18.2206 44.262 18.1171 44.262 17.9767V4.63099Z" fill="#0E151A"/>
<path fill-rule="evenodd" clip-rule="evenodd" d="M57.3108 6.75512C57.3108 6.64648 57.3345 6.54323 57.3832 6.44378C57.4302 6.34472 57.4893 6.26631 57.5601 6.20915C57.7263 6.10071 57.8986 6.04624 58.078 6.04624H59.5264C59.6474 6.04624 59.744 6.06889 59.8143 6.11358C59.8847 6.15807 59.9439 6.21543 59.9917 6.28566C60.0396 6.35619 60.0809 6.4356 60.1166 6.52468C60.1516 6.61486 60.1948 6.70394 60.2454 6.79312C60.2587 6.81866 60.2849 7.06566 60.323 7.16452C60.3607 7.26378 60.4027 7.37251 60.4475 7.49042C60.4927 7.60834 60.5353 7.72016 60.5774 7.82551C60.6187 7.93065 60.6458 7.99908 60.6583 8.0313C60.8506 7.82042 61.0346 7.59876 61.2104 7.36593C61.3859 7.1325 61.573 6.91712 61.7715 6.7193C61.969 6.52109 62.19 6.35858 62.4332 6.23079C62.6763 6.10321 62.9634 6.03906 63.2964 6.03906C63.642 6.03906 63.9505 6.0645 64.222 6.11607C64.494 6.16705 64.7516 6.24147 64.9946 6.34093C65.237 6.43979 65.4787 6.56618 65.7184 6.7193C65.9584 6.87283 66.2186 7.05119 66.5003 7.25589C66.9419 7.49242 67.0248 7.84266 66.7501 8.30903L65.877 9.79351C65.7486 9.98514 65.5922 10.1033 65.4071 10.1477C65.2219 10.1924 65.0196 10.164 64.8028 10.0619C64.5279 9.79351 64.2477 9.59429 63.9633 9.46311C63.6788 9.33223 63.354 9.26669 62.9892 9.26669C62.7402 9.26669 62.5208 9.30171 62.3328 9.37163C62.1438 9.44266 61.9729 9.54102 61.8192 9.66901C61.666 9.7968 61.5216 9.94972 61.3875 10.1287C61.2536 10.3076 61.119 10.5057 60.9844 10.7224V17.656C60.9844 17.8984 60.9252 18.0822 60.8073 18.2069C60.6891 18.3312 60.4927 18.3937 60.2176 18.3937H58.0595C57.5603 18.3937 57.311 18.1478 57.311 17.656L57.3108 6.75512Z" fill="#0E151A"/>
<path fill-rule="evenodd" clip-rule="evenodd" d="M70.5487 12.3217C70.5487 12.743 70.6136 13.1374 70.7452 13.5043C70.8755 13.872 71.0618 14.1889 71.301 14.4574C71.5407 14.7257 71.8322 14.9378 72.1748 15.0943C72.5164 15.2502 72.9024 15.329 73.3304 15.329C73.7455 15.329 74.1217 15.2502 74.457 15.0943C74.7932 14.9378 75.0775 14.7257 75.311 14.4574C75.544 14.1889 75.7234 13.872 75.8479 13.5043C75.9728 13.1374 76.035 12.743 76.035 12.3217C76.035 11.9133 75.9728 11.5236 75.8479 11.153C75.7234 10.7829 75.544 10.4575 75.311 10.1762C75.0775 9.89556 74.7932 9.6736 74.457 9.51099C74.1217 9.34829 73.7455 9.26659 73.3304 9.26659C72.9024 9.26659 72.5164 9.34829 72.1748 9.51099C71.8322 9.6736 71.5407 9.89556 71.301 10.1762C71.0618 10.4575 70.8755 10.7829 70.7452 11.153C70.6136 11.5236 70.5487 11.9133 70.5487 12.3217ZM67.0464 12.3217C67.0464 11.7343 67.1219 11.169 67.2721 10.6266C67.4227 10.0839 67.6338 9.58132 67.9055 9.11795C68.1775 8.65538 68.5034 8.23391 68.8843 7.85374C69.2643 7.47396 69.6881 7.15025 70.155 6.88191C70.6217 6.61406 71.1252 6.40667 71.6656 6.25982C72.2064 6.11288 72.77 6.03906 73.3592 6.03906C74.2291 6.03906 75.0453 6.20067 75.8097 6.52298C76.5739 6.8455 77.2392 7.28891 77.8053 7.85374C78.3705 8.41906 78.8191 9.08314 79.1482 9.84608C79.4773 10.6093 79.6423 11.4343 79.6423 12.3217C79.6423 12.9089 79.5669 13.4724 79.4167 14.0119C79.2665 14.5517 79.0553 15.0545 78.7833 15.5202C78.5113 15.9866 78.1861 16.4095 77.8053 16.7892C77.4247 17.1686 77.0003 17.4952 76.5342 17.7664C76.067 18.0379 75.5666 18.2469 75.0328 18.3936C74.4987 18.5405 73.9407 18.6138 73.3592 18.6138C72.77 18.6138 72.2064 18.5405 71.6656 18.3936C71.1252 18.2469 70.6217 18.0379 70.155 17.7664C69.6881 17.4952 69.2643 17.1686 68.8843 16.7892C68.5034 16.4095 68.1775 15.9866 67.9055 15.5202C67.6338 15.0545 67.4227 14.5517 67.2721 14.0119C67.1219 13.4724 67.0464 12.9089 67.0464 12.3217Z" fill="#0E151A"/>
<path fill-rule="evenodd" clip-rule="evenodd" d="M85.1521 6.29178C85.073 6.15481 84.916 6.08618 84.6813 6.08618H84.5999C84.572 6.08618 84.542 6.08937 84.5099 6.09536L84.1084 6.23602L82.3498 6.85231C82.1086 6.9412 81.9233 7.03527 81.7933 7.13413C81.6633 7.23338 81.5985 7.38192 81.5985 7.57974V17.9734C81.5985 18.1011 81.5778 18.2498 81.5362 18.4187C81.4942 18.588 81.4354 18.7492 81.3584 18.902C81.2819 19.0555 81.1896 19.1843 81.0808 19.2897C80.9719 19.3955 80.8536 19.448 80.7252 19.448H80.5246C80.3196 19.448 80.1458 19.5183 80.0019 19.6586C79.858 19.799 79.7856 19.9838 79.7856 20.2138V21.5832C79.7856 21.7676 79.8467 21.9257 79.968 22.0573C80.0893 22.1879 80.2656 22.2591 80.4962 22.2719H80.7252C81.3203 22.2719 81.8909 22.1602 82.4377 21.937C82.6506 21.8498 82.8514 21.7463 83.0456 21.634C83.3494 21.4581 83.6331 21.2553 83.8903 21.0179C84.312 20.6289 84.6471 20.1725 84.8976 19.6491C85.1465 19.1258 85.2714 18.567 85.2714 17.9734V6.98279V6.83256C85.2714 6.60931 85.232 6.42905 85.1521 6.29178Z" fill="#0E151A"/>
<path fill-rule="evenodd" clip-rule="evenodd" d="M93.1677 8.96054C92.9183 8.96054 92.6763 9.00982 92.4437 9.10848C92.2094 9.20773 91.9913 9.34021 91.7861 9.50621C91.5823 9.6723 91.3975 9.86044 91.2353 10.0714C91.0723 10.2819 90.9388 10.4959 90.8369 10.7126H95.7382C95.6043 10.4638 95.4588 10.2339 95.3016 10.0231C95.1449 9.81226 94.9663 9.62741 94.7647 9.4682C94.5632 9.30809 94.3329 9.18359 94.0745 9.09431C93.8147 9.00513 93.5127 8.96054 93.1677 8.96054ZM97.7815 16.9375C97.2192 17.4544 96.5855 17.8588 95.8821 18.1493C95.1787 18.4395 94.4344 18.5848 93.6469 18.5848C92.7712 18.5848 91.9429 18.4256 91.1629 18.1062C90.3824 17.7869 89.6977 17.345 89.1095 16.7801C88.5209 16.2146 88.0544 15.5492 87.709 14.7831C87.3642 14.0169 87.1912 13.1837 87.1912 12.2837C87.1912 11.7213 87.2595 11.1774 87.3977 10.6504C87.5346 10.1236 87.7299 9.6307 87.9828 9.17082C88.2349 8.71095 88.5423 8.28838 88.9033 7.90192C89.2644 7.51606 89.6697 7.18567 90.1167 6.91084C90.5645 6.63641 91.0512 6.42263 91.5753 6.2695C92.0998 6.11597 92.6526 6.03906 93.235 6.03906C93.7656 6.03906 94.2804 6.10959 94.7791 6.24975C95.2778 6.39051 95.7464 6.58832 96.1847 6.8434C96.6229 7.09968 97.024 7.40573 97.3877 7.76346C97.7527 8.12078 98.0661 8.51193 98.3284 8.9362C98.5903 9.36076 98.7934 9.81445 98.9376 10.2963C99.0816 10.7785 99.1532 11.2748 99.1532 11.7851C99.1532 12.1171 99.1485 12.3884 99.1389 12.5994C99.1291 12.8104 99.0793 12.9778 98.9899 13.1023C98.9007 13.2268 98.7517 13.3128 98.544 13.3606C98.3365 13.4088 98.0312 13.4326 97.6282 13.4326H90.7214C90.7851 13.8413 90.9147 14.1829 91.1096 14.4575C91.3049 14.7316 91.5301 14.9506 91.7861 15.1131C92.0417 15.2763 92.3141 15.3927 92.6016 15.463C92.8891 15.5336 93.1615 15.5683 93.417 15.5683C93.6469 15.5683 93.8836 15.5443 94.1264 15.4964C94.3699 15.4487 94.6049 15.3846 94.832 15.3049C95.0585 15.2247 95.2667 15.1328 95.4549 15.0269C95.644 14.9221 95.7957 14.8121 95.9108 14.6969C96.0136 14.6138 96.1008 14.5517 96.175 14.51C96.2478 14.4684 96.3263 14.4478 96.41 14.4478C96.4929 14.4478 96.5769 14.4766 96.664 14.5342C96.7504 14.5915 96.8477 14.6748 96.957 14.7831L97.9728 15.9323C98.044 16.0152 98.0884 16.0902 98.1078 16.1573C98.1269 16.2243 98.1363 16.2928 98.1363 16.3631C98.1363 16.4912 98.1012 16.6014 98.0312 16.6934C97.9604 16.786 97.8776 16.8677 97.7815 16.9375Z" fill="#0E151A"/>
<path fill-rule="evenodd" clip-rule="evenodd" d="M108.957 14.6487C109.046 14.5853 109.131 14.5449 109.211 14.5293C109.291 14.5133 109.353 14.5056 109.398 14.5056C109.507 14.5056 109.606 14.5277 109.696 14.5718C109.785 14.617 109.878 14.713 109.974 14.8597L111.048 16.4783C111.08 16.5295 111.11 16.5868 111.139 16.6503C111.167 16.7142 111.183 16.7657 111.183 16.8043C111.183 16.9503 111.136 17.0704 111.043 17.1628C110.951 17.2553 110.85 17.3368 110.741 17.4067C110.217 17.7706 109.643 18.0632 109.019 18.2838C108.395 18.5037 107.735 18.6139 107.038 18.6139C106.463 18.6139 105.908 18.5406 105.374 18.3937C104.84 18.2469 104.343 18.038 103.882 17.7665C103.421 17.4953 102.999 17.1687 102.616 16.7893C102.232 16.4095 101.906 15.9867 101.638 15.5202C101.369 15.0545 101.159 14.5517 101.009 14.012C100.859 13.4725 100.784 12.909 100.784 12.3218C100.784 11.7344 100.859 11.1691 101.009 10.6267C101.159 10.084 101.369 9.58142 101.638 9.11805C101.906 8.65548 102.232 8.23401 102.616 7.85384C102.999 7.47406 103.421 7.15035 103.882 6.88201C104.343 6.61416 104.84 6.40677 105.374 6.25992C105.908 6.11298 106.463 6.03906 107.038 6.03906C107.735 6.03906 108.38 6.13233 108.972 6.31688C109.563 6.50253 110.117 6.77716 110.636 7.14028L110.607 7.11185C110.747 7.19524 110.86 7.29251 110.942 7.40403C111.026 7.51606 111.067 7.65492 111.067 7.82042C111.067 7.93574 111.028 8.05385 110.952 8.17465L110.098 9.62133C109.919 9.93406 109.702 10.0903 109.446 10.0903C109.388 10.0903 109.318 10.0758 109.235 10.0474C109.152 10.0188 109.059 9.96928 108.957 9.89845C108.675 9.7139 108.373 9.56217 108.05 9.44356C107.727 9.32595 107.384 9.26669 107.019 9.26669C106.615 9.26669 106.245 9.34839 105.906 9.51109C105.567 9.6737 105.278 9.89566 105.038 10.1763C104.799 10.4575 104.611 10.783 104.477 11.1531C104.343 11.5237 104.275 11.9134 104.275 12.3218C104.275 12.743 104.343 13.1375 104.477 13.5044C104.611 13.8721 104.799 14.189 105.038 14.4575C105.278 14.7257 105.567 14.9378 105.906 15.0944C106.245 15.2503 106.615 15.3291 107.019 15.3291C107.384 15.3291 107.725 15.2655 108.046 15.1374C108.365 15.0095 108.669 14.8469 108.957 14.6487Z" fill="#0E151A"/>
<path fill-rule="evenodd" clip-rule="evenodd" d="M113.744 4.33488C113.744 4.13706 113.809 3.98842 113.94 3.88916C114.071 3.7903 114.258 3.69613 114.501 3.60725L116.679 2.85C116.711 2.84401 116.741 2.84082 116.769 2.84082H116.852C117.088 2.84082 117.246 2.90945 117.326 3.04652C117.407 3.18378 117.446 3.36404 117.446 3.5874L117.437 6.60414H119.039C119.243 6.60414 119.41 6.66499 119.538 6.7867C119.665 6.9075 119.729 7.08906 119.729 7.33247V9.18046C119.729 9.4485 119.665 9.64502 119.538 9.76952C119.41 9.89402 119.243 9.95627 119.039 9.95627H117.437L117.446 17.656C117.446 17.8984 117.376 18.0821 117.235 18.2068C117.095 18.3311 116.899 18.3937 116.65 18.3937H114.482C113.99 18.3937 113.744 18.1478 113.744 17.656L113.734 9.95627H113.034C112.541 9.95627 112.295 9.6977 112.295 9.18046V7.33247C112.295 6.84715 112.541 6.60414 113.034 6.60414H113.734L113.744 4.33488Z" fill="#0E151A"/>
<path fill-rule="evenodd" clip-rule="evenodd" d="M123.814 18.3319C124.991 18.3319 125.945 17.3793 125.945 16.2043C125.945 15.0292 124.991 14.0767 123.814 14.0767C122.637 14.0767 121.683 15.0292 121.683 16.2043C121.683 17.3793 122.637 18.3319 123.814 18.3319Z" fill="#0E151A"/>
<path fill-rule="evenodd" clip-rule="evenodd" d="M123.814 10.5762C124.991 10.5762 125.945 9.62359 125.945 8.44866C125.945 7.27362 124.991 6.32104 123.814 6.32104C122.637 6.32104 121.683 7.27362 121.683 8.44866C121.683 9.62359 122.637 10.5762 123.814 10.5762Z" fill="#0E151A"/>
<path fill-rule="evenodd" clip-rule="evenodd" d="M51.3823 26.8939C51.3155 27.0851 51.2197 27.254 51.0952 27.4006C50.9707 27.5472 50.8159 27.6667 50.6307 27.7591C50.4456 27.8516 50.2382 27.8978 50.0082 27.8978H47.9782V24.7047H50.0082C50.2382 24.7047 50.444 24.7525 50.6261 24.8479C50.8077 24.9437 50.9626 25.0665 51.0902 25.2162C51.2181 25.366 51.3155 25.5365 51.3823 25.7276C51.4493 25.9189 51.4831 26.11 51.4831 26.3013C51.4831 26.5053 51.4493 26.7026 51.3823 26.8939ZM54.6765 24.0832C54.4944 23.739 54.2726 23.4188 54.0108 23.1224C53.749 22.8262 53.4556 22.5713 53.1299 22.3576C52.8043 22.1443 52.4468 21.977 52.0574 21.8558C51.6679 21.7348 51.2532 21.6741 50.8128 21.6741H44.6938C44.5533 21.6741 44.448 21.7141 44.3779 21.7937C44.3074 21.8736 44.2725 21.9801 44.2725 22.114V35.4595C44.2725 35.5999 44.3106 35.7036 44.3873 35.7703C44.4639 35.8373 44.5661 35.8706 44.6938 35.8706H47.5377C47.8315 35.8706 47.9782 35.7338 47.9782 35.4595V30.9091H50.8797C51.5309 30.9028 52.1247 30.7674 52.6608 30.5029C53.1969 30.2383 53.6568 29.8927 54.0396 29.4656C54.4228 29.0385 54.7181 28.5511 54.9254 28.0028C55.1327 27.4548 55.2367 26.8939 55.2367 26.3202C55.2367 25.9317 55.1888 25.5475 55.0932 25.1684C54.9974 24.7891 54.8585 24.4275 54.6765 24.0832Z" fill="#0E151A"/>
<path fill-rule="evenodd" clip-rule="evenodd" d="M60.0402 28.1902C60.1421 27.973 60.2752 27.759 60.4385 27.5484C60.6015 27.3371 60.7852 27.1496 60.9895 26.9841C61.1941 26.8175 61.4139 26.6854 61.6473 26.5861C61.8808 26.4874 62.1212 26.4372 62.3714 26.4372C62.7168 26.4372 63.019 26.4827 63.2773 26.5716C63.5369 26.661 63.7669 26.7857 63.968 26.9453C64.1691 27.1049 64.3485 27.2903 64.506 27.5007C64.662 27.7116 64.8076 27.9412 64.9422 28.1902H60.0402ZM67.5318 26.4139C67.2695 25.9886 66.9567 25.5979 66.5917 25.2407C66.2276 24.8828 65.8261 24.5763 65.3881 24.3212C64.95 24.0659 64.4815 23.8675 63.9832 23.7281C63.4841 23.5868 62.969 23.5164 62.4378 23.5164C61.8563 23.5164 61.3034 23.5934 60.7786 23.7463C60.2541 23.8997 59.7685 24.1138 59.3208 24.388C58.8725 24.6631 58.4684 24.9936 58.1073 25.3792C57.7455 25.7657 57.4394 26.1883 57.1868 26.6481C56.9336 27.108 56.739 27.6014 56.6013 28.1284C56.4641 28.6546 56.3955 29.1992 56.3955 29.7613C56.3955 30.6604 56.5679 31.4939 56.9134 32.2607C57.2588 33.027 57.7253 33.6919 58.3136 34.2571C58.9017 34.8227 59.5857 35.2651 60.3658 35.5839C61.1465 35.9027 61.9745 36.0629 62.8511 36.0629C63.6374 36.0629 64.382 35.9172 65.0857 35.6266C65.7892 35.3361 66.4222 34.9322 66.9855 34.4148C67.0812 34.3448 67.1641 34.2637 67.2341 34.1709C67.3052 34.0784 67.3403 33.9682 67.3403 33.8408C67.3403 33.7707 67.3309 33.7021 67.3115 33.6345C67.2921 33.5676 67.2469 33.4923 67.1774 33.4096L66.1603 32.2607C66.0513 32.1515 65.9537 32.0684 65.8673 32.0117C65.7818 31.9539 65.6965 31.9254 65.6133 31.9254C65.53 31.9254 65.4518 31.9457 65.3787 31.9872C65.3055 32.0287 65.2169 32.0913 65.1149 32.1748C64.9998 32.2891 64.8476 32.3993 64.6589 32.5046C64.4703 32.6099 64.2622 32.7027 64.0356 32.7824C63.8081 32.8624 63.5735 32.9257 63.3308 32.9738C63.0876 33.022 62.8511 33.0461 62.6203 33.0461C62.3652 33.0461 62.0936 33.0107 61.8048 32.9404C61.5173 32.8701 61.2455 32.7535 60.9895 32.5912C60.7342 32.4277 60.5085 32.2091 60.3136 31.9344C60.1183 31.6602 59.9888 31.3192 59.925 30.9102H66.8314C67.2341 30.9102 67.54 30.8861 67.748 30.8384C67.9554 30.7898 68.1043 30.7039 68.1939 30.5796C68.2837 30.4549 68.3331 30.2879 68.3425 30.0771C68.3525 29.8662 68.3568 29.595 68.3568 29.2625C68.3568 28.7522 68.285 28.2562 68.1409 27.7742C67.9974 27.2921 67.7944 26.8385 67.5318 26.4139Z" fill="#0E151A"/>
<path fill-rule="evenodd" clip-rule="evenodd" d="M78.7884 30.9813C78.6639 31.3487 78.485 31.6668 78.2514 31.9344C78.0176 32.202 77.7333 32.4157 77.3975 32.5714C77.0622 32.7283 76.6863 32.8064 76.2708 32.8064C75.8422 32.8064 75.4561 32.7283 75.1149 32.5714C74.7726 32.4157 74.4819 32.202 74.2415 31.9344C74.0023 31.6668 73.8163 31.3487 73.6861 30.9813C73.5541 30.6149 73.4887 30.2203 73.4887 29.7992C73.4887 29.3899 73.5541 29.0011 73.6861 28.6306C73.8163 28.2601 74.0023 27.9349 74.2415 27.6541C74.4819 27.3729 74.7726 27.1508 75.1149 26.988C75.4561 26.8256 75.8422 26.7437 76.2708 26.7437C76.6863 26.7437 77.0622 26.8256 77.3975 26.988C77.7333 27.1508 78.0176 27.3729 78.2514 27.6541C78.485 27.9349 78.6639 28.2601 78.7884 28.6306C78.9137 29.0011 78.9759 29.3899 78.9759 29.7992C78.9759 30.2203 78.9137 30.6149 78.7884 30.9813ZM80.7453 25.3313C80.1796 24.7666 79.5147 24.3227 78.7502 24.0007C77.9862 23.6776 77.1688 23.5164 76.2996 23.5164C75.711 23.5164 75.1465 23.5905 74.6064 23.7374C74.0661 23.8839 73.5619 24.0913 73.0957 24.3596C72.6282 24.6276 72.2048 24.952 71.8243 25.3313C71.4442 25.7112 71.1178 26.1323 70.8459 26.5952C70.5739 27.0591 70.3631 27.5613 70.2129 28.1039C70.0627 28.6464 69.9873 29.2117 69.9873 29.7992C69.9873 30.3865 70.0627 30.9497 70.2129 31.4893C70.3631 32.0287 70.5739 32.5318 70.8459 32.9978C71.1178 33.4644 71.4442 33.8865 71.8243 34.2668C72.2048 34.6466 72.6282 34.9725 73.0957 35.2437C73.5619 35.5152 74.0661 35.7237 74.6064 35.8705C75.1465 36.0174 75.711 36.0912 76.2996 36.0912C76.8812 36.0912 77.4392 36.0174 77.973 35.8705C78.5074 35.7237 79.0077 35.5152 79.475 35.2437C79.9411 34.9725 80.3652 34.6466 80.7453 34.2668C81.1259 33.8865 81.4522 33.4644 81.7241 32.9978C81.9958 32.5318 82.2073 32.0287 82.3576 31.4893C82.5074 30.9497 82.582 30.3865 82.582 29.7992C82.582 28.9122 82.4178 28.0867 82.0879 27.3236C81.7589 26.5607 81.3113 25.8973 80.7453 25.3313Z" fill="#0E151A"/>
<path fill-rule="evenodd" clip-rule="evenodd" d="M93.4991 30.9871C93.3653 31.3568 93.1759 31.6777 92.9331 31.9492C92.6898 32.2202 92.3989 32.4358 92.06 32.5951C91.7207 32.7547 91.3469 32.8347 90.9371 32.8347C90.5218 32.8347 90.1288 32.7547 89.7581 32.5951C89.3869 32.4358 89.0639 32.2202 88.7888 31.9492C88.5142 31.6777 88.2968 31.3568 88.1369 30.9871C87.9769 30.6165 87.8973 30.2203 87.8973 29.7993V29.6556C87.9162 29.2594 88.0104 28.8859 88.1796 28.535C88.3493 28.1839 88.5702 27.879 88.8415 27.6203C89.1133 27.3617 89.43 27.1573 89.7911 27.0077C90.1522 26.8579 90.5346 26.7822 90.9371 26.7822C91.3469 26.7822 91.7207 26.8621 92.06 27.0218C92.3989 27.1814 92.6898 27.3985 92.9331 27.6727C93.1759 27.9477 93.3653 28.2682 93.4991 28.6357C93.6334 29.0031 93.7006 29.3899 93.7006 29.7993C93.7006 30.2203 93.6334 30.6165 93.4991 30.9871ZM95.5183 25.3314C94.9845 24.7667 94.348 24.3227 93.6093 24.0008C92.8708 23.6777 92.0635 23.5164 91.1869 23.5164C90.6886 23.5164 90.2662 23.5805 89.9209 23.7087C89.5755 23.836 89.2784 23.9973 89.0286 24.1926C88.7792 24.3868 88.5636 24.6036 88.3816 24.8431C88.1987 25.0828 88.0179 25.3167 87.8392 25.5466L87.4365 24.388C87.405 24.2866 87.3709 24.1926 87.3353 24.1056C87.3004 24.0193 87.2572 23.9429 87.2059 23.8757C87.1549 23.8088 87.0896 23.7561 87.0098 23.718C86.9296 23.6796 86.8288 23.6601 86.7071 23.6601H85.259C85.1754 23.6601 85.089 23.6702 84.9999 23.6888C84.91 23.7087 84.8237 23.7533 84.7413 23.8233C84.6705 23.8932 84.6109 23.9701 84.5634 24.0531C84.5156 24.1358 84.4915 24.2412 84.4915 24.3693V38.9161C84.4915 39.0248 84.5171 39.1224 84.5677 39.209C84.6195 39.2952 84.6832 39.3667 84.7602 39.4242C84.8366 39.4812 84.9198 39.5259 85.0096 39.5577C85.0984 39.5896 85.1824 39.6059 85.259 39.6059H87.4557C87.6987 39.6059 87.8781 39.5392 87.9926 39.4048C88.1077 39.2707 88.1652 39.1075 88.1652 38.9161V34.4533C88.3384 34.6455 88.5142 34.8362 88.6927 35.0282C88.8721 35.2196 89.0783 35.3955 89.3118 35.5548C89.5456 35.7145 89.8124 35.8438 90.1128 35.9432C90.4132 36.0415 90.7711 36.0912 91.1869 36.0912C92.0635 36.0912 92.8708 35.9285 93.6093 35.6022C94.348 35.2771 94.9845 34.832 95.5183 34.2668C96.0517 33.7021 96.4695 33.0363 96.7698 32.2696C97.0706 31.5041 97.2208 30.6803 97.2208 29.7993C97.2208 28.9122 97.0706 28.0868 96.7698 27.3236C96.4695 26.5607 96.0517 25.8974 95.5183 25.3314Z" fill="#0E151A"/>
<path fill-rule="evenodd" clip-rule="evenodd" d="M102.218 20.3179H102.136C102.108 20.3179 102.078 20.3209 102.045 20.3269L99.8679 21.0842C99.6247 21.1731 99.438 21.2674 99.3068 21.3662C99.1758 21.4654 99.1104 21.6139 99.1104 21.8119V35.133C99.1104 35.6247 99.3563 35.8705 99.8488 35.8705H102.017C102.266 35.8705 102.461 35.8081 102.602 35.6838C102.742 35.5591 102.813 35.3753 102.813 35.133V21.0644C102.813 20.841 102.773 20.6608 102.693 20.5236C102.613 20.3864 102.455 20.3179 102.218 20.3179Z" fill="#0E151A"/>
<path fill-rule="evenodd" clip-rule="evenodd" d="M108.348 28.1902C108.45 27.973 108.583 27.759 108.746 27.5484C108.909 27.3371 109.093 27.1496 109.298 26.9841C109.502 26.8175 109.721 26.6854 109.955 26.5861C110.189 26.4874 110.429 26.4372 110.679 26.4372C111.024 26.4372 111.327 26.4827 111.585 26.5716C111.845 26.661 112.074 26.7857 112.276 26.9453C112.478 27.1049 112.657 27.2903 112.813 27.5007C112.97 27.7116 113.116 27.9412 113.25 28.1902H108.348ZM115.84 26.4139C115.577 25.9886 115.265 25.5979 114.9 25.2407C114.535 24.8828 114.134 24.5763 113.696 24.3212C113.258 24.0659 112.789 23.8675 112.291 23.7281C111.792 23.5868 111.277 23.5164 110.746 23.5164C110.165 23.5164 109.611 23.5934 109.086 23.7463C108.562 23.8997 108.076 24.1138 107.629 24.388C107.181 24.6631 106.776 24.9936 106.415 25.3792C106.053 25.7657 105.746 26.1883 105.495 26.6481C105.241 27.108 105.046 27.6014 104.909 28.1284C104.771 28.6546 104.703 29.1992 104.703 29.7613C104.703 30.6604 104.875 31.4939 105.221 32.2607C105.565 33.027 106.033 33.6919 106.621 34.2571C107.209 34.8227 107.894 35.2651 108.674 35.5839C109.454 35.9027 110.283 36.0629 111.158 36.0629C111.945 36.0629 112.69 35.9172 113.394 35.6266C114.097 35.3361 114.73 34.9322 115.293 34.4148C115.389 34.3448 115.472 34.2637 115.542 34.1709C115.613 34.0784 115.648 33.9682 115.648 33.8408C115.648 33.7707 115.638 33.7021 115.619 33.6345C115.6 33.5676 115.555 33.4923 115.485 33.4096L114.468 32.2607C114.359 32.1515 114.262 32.0684 114.175 32.0117C114.089 31.9539 114.004 31.9254 113.921 31.9254C113.838 31.9254 113.76 31.9457 113.686 31.9872C113.613 32.0287 113.524 32.0913 113.422 32.1748C113.307 32.2891 113.156 32.3993 112.967 32.5046C112.778 32.6099 112.57 32.7027 112.344 32.7824C112.116 32.8624 111.881 32.9257 111.639 32.9738C111.395 33.022 111.158 33.0461 110.928 33.0461C110.673 33.0461 110.401 33.0107 110.113 32.9404C109.825 32.8701 109.554 32.7535 109.298 32.5912C109.042 32.4277 108.816 32.2091 108.621 31.9344C108.426 31.6602 108.297 31.3192 108.233 30.9102H115.139C115.542 30.9102 115.848 30.8861 116.055 30.8384C116.264 30.7898 116.412 30.7039 116.502 30.5796C116.592 30.4549 116.641 30.2879 116.65 30.0771C116.66 29.8662 116.665 29.595 116.665 29.2625C116.665 28.7522 116.593 28.2562 116.449 27.7742C116.305 27.2921 116.102 26.8385 115.84 26.4139Z" fill="#0E151A"/>
</svg>
